<?xml version="1.0" encoding="utf-8"?>
<!-- Generator: Adobe Illustrator 17.0.0, SVG Export Plug-In . SVG Version: 6.00 Build 0)  -->
<!DOCTYPE svg PUBLIC "-//W3C//DTD SVG 1.1//EN" "http://www.w3.org/Graphics/SVG/1.1/DTD/svg11.dtd">
<svg version="1.1" id="图层_1" xmlns="http://www.w3.org/2000/svg" xmlns:xlink="http://www.w3.org/1999/xlink" x="0px" y="0px"
	 width="87.892px" height="24.697px" viewBox="-31.333 31.334 87.892 24.697" enable-background="new -31.333 31.334 87.892 24.697"
	 xml:space="preserve">
<g>
	<path d="M-7.118,46.339c0,0.171-0.08,0.29-0.239,0.358l-0.564-0.188l-0.632,0.496l-0.735-0.104
		c-0.296,0.205-0.621,0.309-0.974,0.309c-0.273,0-0.45,0.063-0.53,0.188c-0.285-0.125-0.553-0.188-0.803-0.188
		c-0.239,0-0.393,0.085-0.461,0.256c0.045,0.114,0.131,0.217,0.256,0.308l-0.103,0.358l0.103,1.18l0.444,0.666l0.085,0.633
		l0.769,1.128l-0.12,0.513l0.53,0.496l0.803,1.367c0.421,0.489,0.667,0.837,0.735,1.042l0.632,0.325l0.239,0.547l0.256,0.188
		l-0.461,0.342l-0.563-0.445h-0.342l-0.461-0.358h-0.342l-0.325-0.599l-0.342-0.171c-0.273-0.547-0.576-0.979-0.906-1.299v-0.342
		l-0.325-0.291l-0.034-0.547l-0.53-0.563l-0.735-1.761l-0.239-0.307l-0.119-0.872c-0.012-0.091-0.16-0.358-0.445-0.804v-0.734h-0.41
		l-0.461,0.308l-0.701-0.137l-0.479,0.308l-0.188-0.171l-0.376,0.239l-0.103-0.239c-0.057,0-0.174,0.034-0.351,0.103
		s-0.367,0.103-0.572,0.103l-0.444-0.034h-0.598l-0.599,0.393l-0.632-0.137l-0.872,0.068v0.172l-0.308-0.172l-0.428,0.24
		l-0.307-0.24h-0.564l-0.564,0.24l-0.458-0.496l-0.239,0.188l-0.495-0.188c-0.389,0.171-0.924,0.77-1.607,1.795l-0.563,0.137
		c-0.935,1.436-1.436,2.159-1.504,2.17l-0.308,0.171l-0.975,1.265h-0.188l-0.838,1.367l-0.905,0.564l-0.7-0.188l0.137-0.308v-0.496
		l0.255-0.307l-0.119-0.24l0.632-0.085l0.427-0.239c0.377-0.159,0.609-0.45,0.701-0.871c0.479-0.126,0.758-0.394,0.838-0.804
		c0.558-0.318,0.934-0.843,1.127-1.572l0.479-0.188l1.129-1.742v-0.496c-0.16-0.125-0.279-0.296-0.359-0.513l0.665-0.6v-0.256
		l0.804,0.086l0.462-0.291l0.102,0.137l0.462-0.615c-0.103-0.022-0.153-0.074-0.153-0.154c0-0.057,0.164-0.193,0.495-0.41
		l0.137,0.205c0.022-0.284,0.142-0.62,0.358-1.008l-0.102-0.068l0.41-0.034l0.137-0.462c0.284-0.033,0.427-0.153,0.427-0.358v-0.41
		c0.558-0.479,0.837-0.923,0.837-1.333v-0.068l0.462-0.068l0.103-0.496l0.239-0.068l0.358-0.734l0.24,0.171l-0.172-0.376
		c0.342-0.034,0.53-0.256,0.564-0.666l0.239,0.137V38.99h0.239v-0.496c0.045-0.045,0.176-0.162,0.393-0.35
		c0.217-0.188,0.354-0.441,0.41-0.761l0.394-0.394l-0.239-0.547c0.318-0.421,0.621-0.632,0.906-0.632h0.068l0.205-0.324l0.238,0.358
		c0.057,0.068,0.16,0.143,0.309,0.223l0.58,0.29l0.068,0.89c0.16,0.137,0.309,0.37,0.445,0.7l0.29,0.104l0.068,0.769l0.273,1.042
		l0.462,0.804l0.307,1.128l0.068,0.734l0.496,0.667l-0.137,0.273l0.376,0.427v0.53l0.085,0.479c0,0.092-0.051,0.211-0.153,0.358
		c0.353,0.832,0.763,1.248,1.23,1.248l0.667-0.137h0.803c0.25,0.068,0.461,0.103,0.632,0.103c0.296,0,0.527-0.068,0.692-0.205
		c0.165-0.137,0.271-0.205,0.316-0.205c0.068,0,0.279,0.103,0.632,0.308L-7.118,46.339z M-13.765,45.467
		c-0.148-0.387-0.337-0.643-0.564-0.769l0.188-0.495l-0.461-0.24l-0.137-1.332l-0.428-0.667l-0.068-0.563l-0.238-0.479v-0.189
		h-0.104l-0.068-0.752c0-0.079-0.063-0.205-0.188-0.376l-0.239-0.376c-0.046-0.068-0.14-0.153-0.282-0.257
		c-0.143-0.102-0.361-0.222-0.658-0.358l-0.393,0.205l-0.239,0.41l-0.837,1.196l-0.205,0.393c-0.058,0.114-0.331,0.417-0.82,0.906
		l-0.137,0.564l-0.735,0.375c-0.171,0.889-0.519,1.402-1.042,1.539l-0.325,1.059l-0.7,0.273v0.359l-0.104,0.444
		c0.41,0.126,0.701,0.245,0.872,0.358l0.427-0.033l0.701,0.17c0.137,0.046,0.239,0.068,0.308,0.068c0.103,0,0.268-0.022,0.495-0.068
		c0.023-0.022,0.068-0.033,0.137-0.033c0.035,0,0.123,0.022,0.266,0.068c0.143,0.045,0.275,0.068,0.401,0.068l0.46-0.101
		l1.367-0.102l1.11-0.154c0.718,0.103,1.173,0.154,1.367,0.154c0.535,0,0.804-0.12,0.804-0.359c0-0.147-0.104-0.348-0.309-0.598
		L-13.765,45.467z"/>
	<path d="M8.041,49.705l-0.239,0.309l0.068,0.837l-0.735,1.025v0.41l-0.461,0.53l0.188,0.307c-0.228,0.217-0.473,0.582-0.735,1.094
		l-0.701,0.428c-0.114,0.183-0.265,0.291-0.453,0.324c-0.188,0.035-0.367,0.074-0.538,0.12l-0.068,0.205l-0.103-0.137l-0.308,0.137
		l-0.222-0.137c-0.137,0-0.296,0.057-0.479,0.171l0.068,0.154l-0.494-0.068l-0.137,0.17l-0.239-0.17l-0.632,0.342l-0.325-0.342
		l-0.701,0.068L0.214,55.31c-0.422-0.113-0.718-0.29-0.889-0.529l-0.41-0.137l-0.222-0.666c-0.023-0.16-0.183-0.279-0.479-0.359
		l-0.325,0.137l-0.479-0.205l-0.53-1.196l0.103-0.273l-0.205-0.394V51.04l-0.137-0.291l0.138-0.565l-0.256-0.307l0.12-0.394v-1.11
		l0.136-0.359l0.068-2.238l0.137-0.872l-0.137-0.137l0.239-0.804l-0.103-0.495v-0.479l0.171-0.257
		c-0.046-0.66-0.103-1.03-0.171-1.11l0.326-1.128l-0.222-1.196l0.222-0.137l-0.154-0.41v-0.632l-0.068-1.061l0.102-0.306
		l-0.137-0.633l0.137-0.068c-0.114-0.057-0.171-0.125-0.171-0.205c0-0.034,0.028-0.1,0.085-0.196
		c0.057-0.097,0.085-0.196,0.085-0.299v-0.103l-0.137-0.325c0.045-0.182,0.068-0.33,0.068-0.444c0-0.25-0.091-0.507-0.273-0.769
		c0-0.171,0.068-0.257,0.205-0.257l-0.205-0.513l0.138-0.426l-0.273-0.701l0.376-0.034l-0.034-0.308l0.256-0.137
		c0.091,0.103,0.171,0.308,0.239,0.615l0.342,0.291l-0.239,0.205l0.461,0.563l-0.222,0.308l-0.239,0.068
		c0.182,0.194,0.273,0.303,0.273,0.325c0,0.08-0.046,0.137-0.137,0.171l0.171,0.239l-0.171,0.153l0.325,0.239
		c-0.103,0.092-0.154,0.205-0.154,0.342l0.325,0.701l-0.137,0.393l0.137,0.103l-0.171,0.068c0.114,0.16,0.171,0.279,0.171,0.359
		c0,0.102-0.097,0.228-0.291,0.375l0.359,0.068c-0.057,0.285-0.097,0.53-0.12,0.735c-0.023,0.205-0.114,0.438-0.273,0.7
		c0.171,0.068,0.256,0.28,0.256,0.633l-0.103,0.428l0.103,0.307l-0.325,1.436l0.325,0.462l-0.325,0.581l0.103,0.529l-0.103,0.359
		l0.222,0.308l-0.325,0.325l0.103,0.238l-0.034,0.309l0.034,0.188l-0.103,0.308l0.171,0.308l-0.171,0.256l0.171,0.342l-0.171,0.137
		c0.068,0.183,0.103,0.325,0.103,0.428c0,0.148-0.08,0.291-0.239,0.428l0.205,0.17l-0.068,0.53v1.384
		c0.193,0.194,0.302,0.291,0.325,0.291c0.159,0,0.239-0.177,0.239-0.529v-0.137c0.103-0.08,0.222-0.217,0.359-0.41
		c0.137-0.194,0.205-0.302,0.205-0.325V47.4l0.171-0.188c0.034-0.456,0.125-0.78,0.273-0.975l-0.034-0.666l0.222-0.035l0.034-0.205
		l0.103,0.068l0.103-0.495l0.239-0.479v-0.222l0.222-0.41l-0.051-0.325l0.325-0.444l0.239-0.119v-0.24
		c0.182-0.102,0.291-0.29,0.325-0.563l0.376-0.444l0.171,0.068v-0.172l0.188-0.153c0.011-0.205,0.159-0.496,0.444-0.872
		c-0.091-0.057-0.137-0.113-0.137-0.171c0-0.068,0.057-0.113,0.171-0.137l0.068-0.171c0.114-0.022,0.325-0.143,0.632-0.358
		l0.188-0.53h0.205l-0.068-0.171c0.216-0.159,0.541-0.239,0.974-0.239l-0.273-0.068l0.342-0.19h0.137l-0.137-0.137l0.205-0.068
		l-0.068-0.102h0.359l-0.034,0.102l0.872,0.137l0.188,0.342c0.057,0.104,0.114,0.41,0.171,0.924l0.308,0.033l0.068,0.496
		l0.308,0.273v0.428l0.12,0.17L6.83,41.401l0.41,0.222l0.068,0.667v0.137c0,0.238,0.142,0.587,0.427,1.042
		c-0.08,0.229-0.166,0.37-0.256,0.427c0.114,0.137,0.222,0.205,0.325,0.205c0.091,0,0.171-0.022,0.239-0.068
		c0,0.273-0.103,0.462-0.308,0.564l0.205,1.436c0.068,0.034,0.103,0.092,0.103,0.171l-0.068,0.308l-0.034,1.863l0.103,0.307
		l-0.103,0.564L8.041,49.705z M7.238,47.143l-0.103-0.77v-0.598l-0.273-1.813l-0.325-1.299l-0.478-1.194l-0.82-1.351
		c-0.046-0.125-0.137-0.257-0.273-0.394l-0.53,0.137l-0.239-0.068l-0.239,0.325l-0.461,0.103v0.444c0,0.046-0.088,0.083-0.265,0.111
		s-0.311,0.202-0.401,0.521c-0.285,0.251-0.47,0.456-0.556,0.615c-0.085,0.16-0.213,0.331-0.384,0.514H1.72l-0.222,0.803
		l-0.273,0.41l-0.461,1.128c0,0.354-0.068,0.644-0.205,0.872s-0.291,0.495-0.461,0.803l0.034,0.564l-0.479,0.7l-0.291,1.162
		l-0.342,0.273c0.022,0.023,0.034,0.046,0.034,0.068c0,0.046-0.012,0.08-0.034,0.103c0.045,0.114,0.068,0.302,0.068,0.564
		c0,0.33-0.057,0.609-0.171,0.837l-0.256,0.103l0.154,0.564l-0.291,0.102l0.034,0.359l-0.103,0.273
		c-0.205,0.137-0.308,0.268-0.308,0.393c0,0.114,0.068,0.172,0.205,0.172c-0.091,0.091-0.137,0.17-0.137,0.238
		c0,0.058,0.045,0.126,0.137,0.205l0.735-0.307l0.496,0.033c0,0.068,0.022,0.104,0.068,0.104h0.034c0.273,0,0.421,0.097,0.444,0.29
		l0.068-0.188l0.051,0.291c0.25,0.046,0.421,0.103,0.513,0.171v0.462c0.159,0.068,0.347,0.216,0.564,0.443h1.196l0.974-0.238
		l0.068-0.205l0.205,0.137l0.291-0.222c0.091-0.068,0.347-0.159,0.769-0.273L4.76,53.415h0.308v-0.171h0.103
		c0.159,0,0.279-0.14,0.359-0.419c0.08-0.278,0.137-0.436,0.171-0.47l0.974-1.077v-0.461l0.393-0.803v-0.975l0.101-1.025
		l-0.034-0.479L7.238,47.143z"/>
	<path d="M23.012,46.664l-0.239,0.734l0.137,0.308l-0.12,0.82c-0.012,0.103-0.097,0.285-0.256,0.547v0.41l-0.256,0.7l-0.205,0.309
		c-0.068,0.079-0.183,0.375-0.342,0.889l-0.256,0.102l-0.137,0.462l-0.376,0.239l-0.291,0.633l-0.513,0.238l-0.051,0.462
		l-0.444,0.171c-0.217,0.285-0.356,0.468-0.418,0.547c-0.063,0.08-0.217,0.16-0.462,0.239c-0.245,0.08-0.407,0.148-0.487,0.205
		c-0.057,0.364-0.382,0.569-0.974,0.615c-0.137,0.171-0.302,0.257-0.496,0.257c-0.057,0-0.148-0.023-0.273-0.068
		c-0.319,0.284-0.615,0.455-0.889,0.512l-0.273,0.428L14.93,56.15l-0.103,0.205l-0.513-0.205l-1.23-0.119
		c-0.205-0.41-0.507-0.827-0.906-1.248l0.137-0.461l-0.496-1.266l0.205-0.41l-0.205-0.957l0.205-0.547
		c0-0.057-0.017-0.207-0.051-0.452c-0.034-0.245-0.051-0.401-0.051-0.47c0-0.24,0.12-0.434,0.359-0.582V49.45
		c0-0.262,0.068-0.519,0.205-0.77h0.203c0.171-0.193,0.256-0.415,0.256-0.666l-0.103-0.239l0.103-0.53v-0.342
		c0.205-0.25,0.308-0.506,0.308-0.769l-0.103-0.563c0-0.172,0.034-0.309,0.103-0.41c0.353-0.183,0.53-0.359,0.53-0.53
		c0-0.113-0.046-0.233-0.137-0.358l0.342-0.599c0.045-0.091,0.117-0.165,0.213-0.222c0.097-0.058,0.157-0.097,0.18-0.12
		l-0.068-0.342c0.364-0.034,0.547-0.222,0.547-0.563c0-0.205-0.034-0.416-0.103-0.633c0.774,0,1.287-0.398,1.538-1.196h0.222
		c0.159-0.159,0.273-0.239,0.342-0.239c0.022,0,0.122,0.028,0.299,0.086c0.176,0.057,0.453,0.085,0.829,0.085l0.547-0.239v0.239
		c0.239,0.023,0.535,0.153,0.889,0.394h0.479c0.114,0.228,0.222,0.342,0.325,0.342l0.068-0.035c0.262,0.41,0.53,0.701,0.803,0.872
		l0.171,0.427l0.325,0.137l0.547,0.804l0.564,1.606v0.324L23.012,46.664z M21.901,47.638c0.137-0.171,0.205-0.313,0.205-0.427
		c0-0.08-0.04-0.163-0.12-0.248c-0.08-0.086-0.12-0.14-0.12-0.162h0.205c-0.034-0.137-0.114-0.257-0.239-0.359l0.068-0.103
		l-0.239-0.563l0.068-0.77l-0.325-0.547c-0.251-0.159-0.376-0.279-0.376-0.359v-0.102c0-0.092-0.042-0.151-0.128-0.18
		c-0.085-0.028-0.128-0.077-0.128-0.146v-0.034c0-0.034,0.051-0.182,0.154-0.444l-0.222-0.171l-0.342-0.034l-0.137-0.257
		l0.137-0.205l-0.461-0.238l-0.342-0.325l-0.991-0.41l-0.41-0.085c-0.672,0-1.003,0.188-0.991,0.563l0.051,1.162l-0.701,0.034
		l-1.094,0.666l-0.103,0.377l-0.393,0.256l-0.171,1.008l-0.342,0.24c-0.068,0.033-0.103,0.199-0.103,0.495
		c0,0.263,0.022,0.473,0.068,0.632l-0.427,0.24c-0.091,0.045-0.137,0.268-0.137,0.666c0,0.183-0.108,0.359-0.325,0.529v0.342
		l-0.308,0.496v0.308l-0.103,0.222l0.068,0.479l-0.461,1.129l0.154,0.375v0.82l-0.154,0.582l0.034,0.854l0.513,0.667
		c0.057,0.092,0.262,0.217,0.615,0.376l0.103,0.171l0.239-0.068l0.222,0.068l0.41-0.171l0.837,0.034l0.393-0.103l0.107-0.239
		l0.359,0.034c0.364,0,0.547-0.119,0.547-0.359l0.496,0.137l0.103-0.273l0.325-0.033l0.171-0.394c0.25-0.193,0.387-0.353,0.41-0.479
		h0.564l0.171-0.358l0.598-0.53l0.222-0.325c0.091-0.125,0.193-0.222,0.308-0.29l0.496-0.257c0.057-0.318,0.159-0.643,0.308-0.974
		l-0.068-0.308l0.496-0.223l-0.068-0.17c0.137-0.194,0.262-0.359,0.376-0.496h-0.171c0.091-0.125,0.137-0.228,0.137-0.308
		c0-0.068-0.017-0.153-0.051-0.257c-0.034-0.102-0.051-0.17-0.051-0.205c0-0.147,0.034-0.307,0.103-0.479
		c0.068-0.17,0.103-0.278,0.103-0.324C22.038,47.73,21.992,47.672,21.901,47.638z"/>
	<path d="M42.631,53.312c0.159-0.022,0.347-0.034,0.564-0.034c0.25,0,0.376,0.092,0.376,0.273c0,0.16-0.125,0.336-0.376,0.529
		l-0.256,0.137l-0.171,0.188c-0.046,0.058-0.245,0.183-0.598,0.376l-0.564,0.171c-0.137,0.137-0.519,0.205-1.145,0.205
		c-0.057,0-0.228-0.046-0.513-0.137c-0.285-0.091-0.467-0.171-0.547-0.239l-1.145-1.025L38,52.68l-0.342-0.325v-0.171
		c0-0.342-0.08-0.644-0.239-0.906l0.034-0.837c0.091-0.41,0.137-0.655,0.137-0.735c0-0.262-0.068-0.518-0.205-0.769l0.103-1.572
		l-0.393,0.205l-0.239,0.376l-0.325,0.223c-0.114,0.068-0.228,0.205-0.342,0.41l-0.308,0.033c-0.262,0.229-0.393,0.462-0.393,0.701
		c-0.342,0.148-0.559,0.351-0.649,0.606c-0.091,0.257-0.268,0.524-0.53,0.804c-0.262,0.279-0.461,0.441-0.598,0.486
		c-0.137,0.046-0.245,0.114-0.325,0.205l-1.008,1.23h-0.103l-0.82,0.975l-0.649,0.359l-0.291,0.443
		c-0.399,0.126-0.877,0.325-1.436,0.599l-0.53-0.342c-0.057,0.023-0.137,0.034-0.239,0.034c-0.137,0-0.205-0.063-0.205-0.188
		c0-0.092,0.011-0.16,0.034-0.205l-0.359-0.205c0-0.104,0.04-0.223,0.12-0.359l-0.461-0.444l0.273-0.358h-0.376l-0.256-0.667
		l0.256-0.205l-0.325-0.462c0-0.569,0.04-0.871,0.12-0.905l0.017-0.599c0.011-0.205,0.074-0.449,0.188-0.734l-0.291-0.205
		c0.193-0.262,0.291-0.484,0.291-0.666c0-0.137-0.057-0.325-0.171-0.564c0.137-0.068,0.205-0.25,0.205-0.547
		c0-0.113-0.012-0.268-0.034-0.461l-0.137-1.162l0.41-2.444c-0.023-0.421-0.08-0.865-0.171-1.333l-0.137-0.598
		c0-0.365,0.199-0.547,0.598-0.547l0.513,0.137l0.256,0.307l-0.154,0.735l-0.068,1.761l0.068,1.11l-0.239,0.563l0.137,0.342
		l-0.137,0.53v0.462c-0.091,0.033-0.12,0.105-0.085,0.213c0.034,0.108,0.051,0.186,0.051,0.23c0,0.137-0.046,0.269-0.137,0.394
		l0.239,0.308l-0.342,0.428l0.205,0.307l-0.103,0.462l0.103,0.563v0.667l0.205,0.239L28.24,51.45c0,0.137,0.068,0.313,0.205,0.529
		l-0.103,0.376l0.171,0.495c0.193,0.114,0.438,0.337,0.735,0.667c0.25-0.034,0.473-0.147,0.667-0.342
		c0.193-0.193,0.438-0.394,0.735-0.599c0-0.022-0.046-0.033-0.137-0.033c0.376-0.172,0.564-0.359,0.564-0.564
		c0.262-0.034,0.45-0.079,0.564-0.137l0.068-0.428l0.342-0.137c0.262-0.33,0.649-0.552,1.162-0.666l0.034-0.342l0.632-0.529
		c0.057-0.445,0.302-0.678,0.735-0.701l0.137-0.461l0.308-0.137l0.461-0.667h0.205v-0.205l0.325-0.171l0.205-0.496
		c0.285-0.147,0.564-0.278,0.837-0.393l0.138-0.375l0.256-0.103v-0.223l0.137-0.033c0.057-0.559,0.256-0.838,0.598-0.838
		l-0.103-0.103l0.649-1.931h0.154v-0.479h0.034c0.08,0,0.279-0.422,0.598-1.266l0.615-0.068l-0.068,0.137l0.359,0.667l-0.291,1.299
		l-0.513,0.769l-0.359,1.299l-0.444,0.309v0.769l-0.256,0.495l0.068,0.564l-0.239,0.239l0.068,1.538l-0.137,1.896l0.103,0.205
		l-0.034,0.273h0.104v0.53c0.376,0.547,0.564,0.895,0.564,1.042l0.496,0.12l0.103,0.308c0.319,0.137,0.598,0.268,0.837,0.393
		l0.461-0.033l0.376,0.102l0.547-0.222C42.084,53.722,42.323,53.563,42.631,53.312z"/>
	<path d="M49.415,41.861l2.41,0.103l2.307-0.103l0.564,0.034l0.239-0.034H56.2c0.239,0,0.359,0.103,0.359,0.308
		c0,0.239-0.188,0.394-0.564,0.462c-0.068-0.046-0.166-0.068-0.291-0.068c-0.16,0-0.308,0.057-0.444,0.17l-0.496-0.102l-0.94,0.033
		c-0.433,0.24-0.866,0.359-1.299,0.359l-0.666-0.119l-0.342,0.324h-0.325v-0.205l-0.598,0.273h-0.308l-0.103,0.308
		c-0.192-0.056-0.534-0.102-1.024-0.136c-0.034,0.137-0.091,0.205-0.171,0.205c-0.046,0-0.114-0.045-0.205-0.137l-0.496,0.068
		l-0.342,0.358l-0.103,1.709l0.068,1.025l-0.101,1.318l0.034,1.47l0.103,0.7v0.633l0.41,0.871v0.154c0,0.399,0.233,0.78,0.701,1.145
		l0.102,0.29l0.632,0.137l0.461,0.496l1.299,0.238l1.709-0.393l0.496,0.154l1.213-0.564l0.461,0.068
		c0.159,0.16,0.239,0.308,0.239,0.444c0,0.171-0.148,0.358-0.444,0.563l-0.256-0.102l-0.547,0.461l-1.162,0.137l-0.393,0.239
		l-0.41-0.239c-0.388,0.205-0.798,0.308-1.23,0.308l-0.701-0.137H50.15l-1.264-0.733l-0.598-0.837l-0.41-0.462l-0.632-1.674
		l-0.291-1.572l0.154-0.633l-0.291-0.342l0.137-0.393l-0.137-0.633l0.359-0.273l-0.154-0.324l0.085-0.41l-0.154-0.462l0.068-0.667
		l-0.068-0.342l0.154-0.102v-1.266c-0.068-0.307-0.166-0.461-0.291-0.461c-0.08,0-0.148,0.046-0.205,0.137l-0.393-0.171
		l-0.547,0.137l-0.564-0.41h-0.291c-0.273,0-0.41-0.153-0.41-0.462l0.034-0.529l-0.239-0.171l0.137-0.308l0.513,0.068l0.393-0.068
		l0.564,0.171h1.47l0.069-0.803v-0.803l-0.24-0.598l0.274-0.205c0.045-0.136,0.068-0.222,0.068-0.256
		c0-0.147-0.091-0.273-0.273-0.376l0.068-1.368l-0.29-0.427l0.068-0.307c-0.228-0.046-0.342-0.137-0.342-0.273l0.239-0.923
		c0.193-0.251,0.302-0.41,0.325-0.479c0.695,0.342,1.042,0.541,1.042,0.598v0.034l-0.137,0.342c0.159,0.331,0.239,0.587,0.239,0.77
		v0.102c-0.068,0.183-0.103,0.349-0.103,0.496c0,0.114,0.034,0.205,0.103,0.273l-0.034,0.291l0.034,0.375l-0.307,0.496l0.205,0.871
		l-0.137,1.061l0.137,0.205l-0.205,0.307l0.273,0.872h0.633L49.415,41.861z"/>
</g>
</svg>
