<?xml version="1.0" encoding="utf-8"?>
<!-- Generator: Adobe Illustrator 17.0.0, SVG Export Plug-In . SVG Version: 6.00 Build 0)  -->
<!DOCTYPE svg PUBLIC "-//W3C//DTD SVG 1.1//EN" "http://www.w3.org/Graphics/SVG/1.1/DTD/svg11.dtd">
<svg version="1.1" id="图层_1" xmlns="http://www.w3.org/2000/svg" xmlns:xlink="http://www.w3.org/1999/xlink" x="0px" y="0px"
	 width="124.138px" height="24.217px" viewBox="-49.68 49.68 124.138 24.217" enable-background="new -49.68 49.68 124.138 24.217"
	 xml:space="preserve">
<g>
	<path d="M-25.466,64.206c0,0.171-0.08,0.29-0.239,0.358l-0.563-0.188l-0.633,0.496l-0.734-0.104
		c-0.297,0.205-0.621,0.309-0.975,0.309c-0.273,0-0.45,0.063-0.529,0.188c-0.285-0.125-0.553-0.188-0.804-0.188
		c-0.239,0-0.394,0.085-0.462,0.256c0.046,0.114,0.131,0.217,0.257,0.308l-0.103,0.358l0.103,1.18l0.444,0.666l0.086,0.633
		l0.769,1.128l-0.12,0.513l0.53,0.496l0.804,1.367c0.421,0.489,0.666,0.837,0.734,1.042l0.633,0.325l0.238,0.547l0.257,0.188
		l-0.462,0.342l-0.563-0.444h-0.342l-0.462-0.358h-0.342l-0.324-0.599l-0.342-0.171c-0.273-0.547-0.576-0.979-0.906-1.299v-0.342
		l-0.324-0.291l-0.034-0.547l-0.53-0.563l-0.734-1.761l-0.239-0.307l-0.12-0.872c-0.012-0.091-0.159-0.358-0.443-0.804v-0.734h-0.41
		l-0.462,0.308l-0.7-0.137l-0.479,0.308l-0.188-0.171l-0.376,0.239l-0.103-0.239c-0.058,0-0.174,0.034-0.351,0.103
		s-0.367,0.103-0.572,0.103l-0.444-0.034h-0.599l-0.598,0.393l-0.633-0.137l-0.871,0.068v0.172l-0.308-0.172l-0.427,0.24
		l-0.309-0.24h-0.563l-0.563,0.24l-0.462-0.496l-0.239,0.188l-0.496-0.188c-0.387,0.171-0.922,0.77-1.605,1.795l-0.564,0.137
		c-0.935,1.436-1.436,2.159-1.504,2.17l-0.308,0.171l-0.974,1.265h-0.188l-0.837,1.367l-0.906,0.564l-0.701-0.188l0.137-0.308
		v-0.496l0.257-0.307l-0.12-0.24l0.633-0.085l0.428-0.239c0.375-0.159,0.609-0.45,0.7-0.871c0.479-0.126,0.757-0.394,0.837-0.804
		c0.559-0.318,0.935-0.843,1.129-1.572l0.479-0.188l1.127-1.742v-0.496c-0.159-0.125-0.279-0.296-0.358-0.513l0.667-0.599v-0.256
		l0.803,0.086l0.461-0.291l0.104,0.137l0.461-0.615c-0.103-0.022-0.154-0.074-0.154-0.154c0-0.057,0.166-0.193,0.496-0.41
		l0.137,0.205c0.022-0.284,0.143-0.62,0.359-1.008l-0.104-0.068l0.41-0.034l0.137-0.462c0.285-0.033,0.428-0.153,0.428-0.358v-0.41
		c0.559-0.479,0.838-0.923,0.838-1.333V59.66l0.461-0.068l0.103-0.496l0.239-0.068l0.359-0.734l0.238,0.171l-0.17-0.376
		c0.342-0.034,0.529-0.256,0.563-0.666l0.239,0.137v-0.702h0.239v-0.496c0.046-0.045,0.177-0.162,0.394-0.35
		c0.216-0.188,0.353-0.441,0.41-0.761l0.393-0.394l-0.239-0.547c0.319-0.421,0.62-0.632,0.905-0.632h0.068l0.205-0.324l0.24,0.358
		c0.057,0.068,0.158,0.143,0.307,0.223l0.582,0.29l0.068,0.889c0.158,0.137,0.307,0.37,0.443,0.7l0.291,0.104l0.068,0.769
		l0.273,1.042l0.461,0.804l0.309,1.128l0.068,0.734l0.495,0.667l-0.137,0.273l0.376,0.427v0.53l0.086,0.479
		c0,0.092-0.052,0.211-0.154,0.358c0.354,0.832,0.764,1.248,1.23,1.248l0.666-0.137h0.804c0.251,0.068,0.462,0.103,0.632,0.103
		c0.297,0,0.527-0.068,0.692-0.205s0.271-0.205,0.316-0.205c0.068,0,0.278,0.103,0.632,0.308L-25.466,64.206z M-32.115,63.334
		c-0.148-0.387-0.336-0.643-0.563-0.769l0.188-0.495l-0.462-0.24l-0.137-1.332l-0.427-0.667l-0.068-0.563l-0.24-0.479v-0.188h-0.102
		l-0.068-0.752c0-0.079-0.063-0.205-0.188-0.376l-0.239-0.376c-0.046-0.068-0.14-0.153-0.282-0.257
		c-0.143-0.102-0.362-0.222-0.657-0.358l-0.394,0.205l-0.239,0.41l-0.838,1.196l-0.205,0.393c-0.057,0.114-0.33,0.417-0.82,0.906
		l-0.137,0.564l-0.734,0.375c-0.171,0.889-0.519,1.402-1.043,1.539l-0.324,1.059l-0.701,0.273v0.359l-0.102,0.444
		c0.41,0.126,0.7,0.245,0.871,0.358l0.428-0.033l0.7,0.17c0.137,0.046,0.239,0.068,0.308,0.068c0.103,0,0.268-0.022,0.496-0.068
		c0.021-0.022,0.068-0.033,0.137-0.033c0.033,0,0.121,0.022,0.265,0.068c0.142,0.045,0.276,0.068,0.401,0.068l0.461-0.104
		l1.367-0.102l1.111-0.154c0.718,0.103,1.174,0.154,1.367,0.154c0.535,0,0.803-0.12,0.803-0.359c0-0.147-0.102-0.348-0.307-0.598
		L-32.115,63.334z"/>
	<path d="M-10.615,59.164l-0.104,0.428l-1.025,0.137l-0.666,0.496l-0.444,0.068l-0.563,0.342l-0.564,0.256
		c-0.273,0.239-0.496,0.388-0.666,0.444v0.171l-0.514,0.256l-0.358,0.564h-0.376l-0.188,0.547l-0.394,0.256
		c-0.159,0.092-0.285,0.217-0.376,0.377l-0.342,0.632c-0.262,0.137-0.416,0.45-0.461,0.94l-0.172-0.068l-0.068,0.222l-0.256,0.171
		l-0.239,0.598c-0.251,0.354-0.376,0.622-0.376,0.804l-0.324,0.137v0.735c-0.068,0.079-0.126,0.205-0.172,0.375l0.068,0.12
		l-0.342,0.137l0.104,0.273c-0.035,0.229-0.211,0.649-0.53,1.265l0.171,0.444l-0.342,0.563c0.045,0.229,0.068,0.405,0.068,0.53
		l-0.068,0.563l0.154,0.615c0.011,0.035,0.063,0.104,0.153,0.205l0.257,0.257c-0.148,0.284-0.291,0.484-0.428,0.599l-0.461-0.172
		l0.068,0.309l-0.77-0.137v-0.462l-0.103-0.308l0.103-0.564l-0.103-0.238l0.068-1.197l-0.068-0.803
		c-0.159-0.057-0.239-0.125-0.239-0.205c0-0.091,0.08-0.233,0.239-0.428v-0.512c0-0.273-0.012-0.473-0.034-0.599l0.137-0.171
		l-0.137-0.666l0.103-0.53l-0.103-0.325l0.103-0.939l-0.171-0.273l0.103-0.324l-0.205-0.701l0.068-0.547
		c0-0.147-0.022-0.359-0.068-0.633l0.103-0.17l-0.205-1.197l-0.256-0.17l0.256-0.599c-0.239-0.33-0.359-0.718-0.359-1.162v-0.479
		c-0.102-0.113-0.17-0.222-0.205-0.325c0.16-0.216,0.45-0.403,0.872-0.563l0.257,0.068c0.045,0.285,0.17,0.559,0.375,0.82
		l-0.068,0.872l0.342,2.648c0,0.171-0.068,0.324-0.205,0.461l0.172,0.735l-0.104,0.53l0.104,0.563l-0.068,0.444l0.256,0.529
		l-0.154,0.104l0.12,0.803l0.273,0.068l0.12-0.684c0.011-0.079,0.147-0.284,0.41-0.615c0.295-0.262,0.443-0.553,0.443-0.871v-0.205
		l0.223-0.104c0.034,0,0.063-0.042,0.086-0.128c0.021-0.085,0.063-0.128,0.119-0.128h0.103l0.205-0.684l0.53-0.359l0.033-0.205h0.24
		l-0.104-0.393l0.53-0.239l0.034-0.427l0.496-0.068c0.25-0.205,0.421-0.428,0.512-0.667l0.325-0.068
		c0.046-0.091,0.257-0.302,0.632-0.632c0.08,0,0.137-0.035,0.172-0.104l0.563-0.307l0.137-0.257l0.308-0.171
		c0.603-0.441,1.013-0.662,1.23-0.662h0.137c0.205,0,0.37-0.058,0.496-0.172l0.307,0.104c0.16-0.114,0.291-0.172,0.394-0.172
		C-10.861,59.051-10.638,59.119-10.615,59.164z"/>
	<path d="M2.083,67.283l-0.547,0.599c-0.012,0.193-0.034,0.353-0.068,0.479c-0.023,0.137-0.063,0.262-0.119,0.375
		c-0.068,0.114-0.154,0.223-0.257,0.325c-0.058,0.058-0.171,0.257-0.342,0.599c-0.126,0.238-0.263,0.455-0.41,0.648
		c-0.148,0.205-0.308,0.388-0.479,0.547c-0.183,0.16-0.382,0.309-0.599,0.445c-0.318,0.17-0.604,0.375-0.854,0.615l-0.291,0.051
		c-0.08,0.012-0.297,0.154-0.649,0.428l-0.394,0.033l-0.803,0.599l-0.273-0.171l-0.734,0.342l-0.701-0.171l-0.205,0.257
		l-0.428-0.086l-0.41,0.086l-0.119-0.12l-0.479-0.085c-0.193-0.035-0.359-0.109-0.496-0.223l-0.563-0.461l-0.513-0.77
		c-0.239-0.262-0.359-0.575-0.359-0.939v-0.137l-0.375-0.599v-0.53l-0.154-0.205l0.068-0.7l-0.137-0.563l0.223-0.547l-0.154-0.257
		l0.359-0.563l-0.104-0.735l0.086-0.308c0.045-0.273,0.154-0.507,0.324-0.701l0.035-0.803l0.256-0.207l-0.103-0.223l0.239-0.342
		c0.068-0.433,0.313-1.167,0.734-2.204l0.599-0.599l0.171-0.427l0.273-0.479c0.057-0.273,0.176-0.53,0.359-0.769
		c0.238,0,0.473-0.097,0.7-0.291c-0.022-0.387,0.325-0.581,1.042-0.581c0.104,0,0.325,0.058,0.667,0.171
		c0.342,0.114,0.563,0.302,0.667,0.564c0.353,0,0.529,0.125,0.529,0.375l1.008,0.035l0.035,0.324l0.205,0.239l-0.035,0.41
		l0.257,0.325l-0.034,0.443l0.068,0.257l-0.068,0.7l0.171,0.24v0.358l0.103,0.735l-0.701,0.375l-0.734-0.871l-0.068-1.128
		l-0.137-0.41V60.63l-0.41-0.496c-0.125-0.159-0.388-0.364-0.786-0.615l-0.479,0.205h-0.427C-5,59.758-5.248,59.855-5.481,60.015
		c-0.233,0.159-0.498,0.498-0.795,1.017c-0.296,0.519-0.541,0.84-0.734,0.966l-0.034,0.495l-0.29,0.239v0.701l-0.342,0.461
		l-0.137,0.479c-0.126,0.251-0.221,0.524-0.282,0.82c-0.063,0.297-0.123,0.456-0.18,0.479l0.034,0.564l-0.308,0.734l0.068,0.529
		l-0.137,0.035l-0.034,1.332l-0.068,0.035l0.068,0.307l-0.154,0.137l0.514,0.599c0.057,0.068,0.119,0.257,0.188,0.563l-0.103,0.104
		l0.358,0.495l0.273,0.103l0.035,0.342l1.862,0.428c0.159-0.172,0.308-0.257,0.444-0.257c0.057,0,0.176,0.028,0.359,0.085
		c0.205-0.147,0.363-0.222,0.479-0.222l0.256,0.034c0.012,0,0.091-0.048,0.239-0.146c0.147-0.097,0.37-0.15,0.667-0.162
		c0.193-0.398,0.438-0.599,0.734-0.599c0.113,0,0.205,0.012,0.273,0.035c0.592-0.251,0.889-0.473,0.889-0.667
		c0.125-0.25,0.37-0.376,0.734-0.376h0.137c0.957-1.06,1.413-1.635,1.367-1.727c0.262-0.228,0.462-0.552,0.599-0.974l0.308-0.205
		l0.034-0.462C2.002,66.468,2.083,66.782,2.083,67.283z"/>
	<path d="M18.334,72.649c0.023,0.114,0.035,0.262,0.035,0.444c0,0.535-0.257,0.804-0.77,0.804c-0.342,0-0.576-0.291-0.701-0.872
		l-0.238-1.077v-0.324c0.021-0.159,0.033-0.353,0.033-0.581c0-0.273-0.119-0.581-0.358-0.923l0.239-0.564l-0.137-0.837l0.137-0.41
		v-0.563l0.086-0.496l-0.154-0.547l0.154-0.324V65.08l0.033-1.676l-0.256-1.11l0.137-0.462L16.266,60.5v-0.428l-0.563-0.239
		l-0.633,0.581c-0.092,0.08-0.205,0.154-0.342,0.223l-0.598,0.256l-0.975,1.401l-0.393,0.103l-0.872,1.436v0.171h-0.239
		l-0.103,0.308l-0.376,0.359c-0.137,0.147-0.245,0.37-0.324,0.666l-0.359,1.213L9.96,67.234c-0.068,0.08-0.148,0.273-0.24,0.582
		L9.378,68.14l-0.153,0.906l-0.735,0.7L8.422,70.72H8.285l-0.238,0.667l-0.564,1.009c-0.444,0.501-0.713,0.843-0.803,1.025
		L6.508,73.35H6.286l-0.103-0.188l-0.308-1.179l-0.068-1.932l-0.103-0.564l0.103-0.7l-0.034-1.214l0.171-0.068l0.239-2.973
		l0.103-0.564L6.253,63.54l0.188-0.102l-0.085-0.24l0.153-1.23l0.172-0.495L6.577,60.96l0.104-0.256l-0.104-0.205l0.104-1.162
		l-0.172-0.173l0.104-0.238l-0.035-1.334l-0.222-0.598h0.222v-0.307l-0.324-1.436v-0.7l-0.137-0.325l-0.171-1.11
		c-0.137-0.513-0.325-0.992-0.564-1.436l0.393-0.564l-0.068-0.103c0.273,0,0.41,0.143,0.41,0.428l0.496,0.444l0.137,0.41
		c0.045,0.125,0.188,0.319,0.427,0.581l-0.085,0.308l0.222,0.632l-0.222,0.308l0.324,0.256l-0.034,0.906l0.034,1.743l0.205,0.889
		l-0.137,0.376l0.034,0.666L7.38,59.524l0.103,0.871l-0.239,0.872l0.137,0.239l-0.068,2.137l0.068,0.324l-0.137,0.171l-0.153,1.299
		l-0.172,0.376l0.137,0.428l-0.068,0.205L6.92,67.608l-0.342,1.008c0.251,0.297,0.377,0.496,0.377,0.598L6.682,69.71
		c0.113,0.229,0.17,0.507,0.17,0.838l0.325-0.257l0.137-0.444l0.547-1.128l0.257-0.804c0.375-0.113,0.563-0.358,0.563-0.734
		c0.068-0.034,0.239-0.313,0.513-0.838L9.348,65.9c0.045-0.148,0.158-0.336,0.342-0.564l0.033-0.461l-0.102-0.104l0.237-0.206
		l0.068,0.104l0.564-0.701c0.182-0.091,0.273-0.233,0.273-0.428v-0.137c0.308-0.045,0.461-0.256,0.461-0.632l0.104-0.068v-0.171
		l0.29-0.068l0.034-0.461h0.239l-0.033-0.274h0.239v-0.223c0.159-0.113,0.257-0.171,0.29-0.171c0.023,0,0.035,0.023,0.035,0.068
		v0.068l0.033-0.308h0.104c0.273,0,0.41-0.223,0.41-0.666l0.427-0.342l0.068,0.137c0.171-0.194,0.278-0.428,0.325-0.701l0.239-0.101
		l0.104-0.29l0.273-0.035c0.102-0.091,0.232-0.15,0.393-0.179c0.159-0.028,0.25-0.049,0.273-0.06l-0.068-0.137
		c0.479-0.263,0.77-0.394,0.871-0.394c0.148,0,0.336,0.153,0.564,0.462c0.171,0.022,0.256,0.125,0.256,0.307l0.309,0.257
		c0,0.16,0.188,0.553,0.563,1.179v2.734l-0.068,1.436l0.137,0.342v2.564l-0.068,0.461v0.871l0.068,0.735l-0.137,0.872
		c0.091,0.091,0.159,0.438,0.205,1.042l0.342,0.427v0.428L18.334,72.649z"/>
	<path d="M27.786,50.637c-0.08,0.205-0.279,0.399-0.598,0.581v0.223l-0.309,0.342c-0.102,0.137-0.193,0.205-0.273,0.205
		c-0.033,0-0.097-0.022-0.188-0.068l-0.939,1.128l-0.24,0.376l-0.837,0.256l-0.427,0.632l-0.394,0.172
		c-0.114,0.045-0.37,0.268-0.769,0.666l-0.204-0.138l-0.035-0.428l0.804-0.358c0.114-0.569,0.259-0.891,0.437-0.966
		c0.176-0.073,0.264-0.122,0.264-0.145v-0.136l0.172-0.103l0.068,0.034l0.085-0.257h0.137l-0.137-0.308h0.547v-0.494l0.257-0.068
		l0.17-0.273l0.273-0.103l0.257-0.462c0.091,0,0.159-0.068,0.205-0.205h0.205l0.034-0.358c0.238-0.206,0.38-0.439,0.427-0.702
		C27.335,49.863,27.671,50.182,27.786,50.637z M31.254,68.24l-0.068,0.342l-0.324,0.239l-0.137,0.428l-0.479,0.137
		c-0.148,0.455-0.313,0.746-0.496,0.871l-0.427,0.154l-0.376,0.41c-0.092,0.045-0.291,0.256-0.598,0.632h-0.24
		c-0.159,0.229-0.416,0.358-0.769,0.394c-0.251,0.307-0.394,0.489-0.427,0.547c-0.172,0.113-0.391,0.196-0.658,0.247
		c-0.268,0.052-0.436,0.089-0.504,0.111l-0.137,0.205H25.05l-0.308,0.239l-0.872-0.649l-0.495-1.128l-0.068-1.812l-0.103-0.358
		l0.342-2.871l0.223-0.172l-0.104-1.794c0-0.216,0.031-0.419,0.094-0.606c0.063-0.188,0.123-0.447,0.18-0.777l0.137-0.086
		c0-0.318-0.08-0.644-0.238-0.975l0.137-0.461v-0.649l0.17-0.222c-0.022-0.16-0.063-0.345-0.119-0.556
		c-0.056-0.211-0.086-0.327-0.086-0.351c0-0.182,0.046-0.273,0.137-0.273c0.023,0.023,0.046,0.034,0.068,0.034
		c-0.159-0.364-0.238-0.599-0.238-0.7c0-0.172,0.079-0.257,0.238-0.257c0.046,0,0.123,0.031,0.23,0.094
		c0.109,0.063,0.197,0.095,0.266,0.095c0.022,0,0.08-0.023,0.171-0.068c0-0.194,0.079-0.291,0.239-0.291
		c0.137,0,0.213,0.025,0.23,0.077c0.018,0.051,0.049,0.271,0.094,0.657l0.377,0.172l-0.309,0.393l-0.358,2.238l0.29,0.564
		c0,0.263-0.107,0.484-0.324,0.666l-0.103,0.445l0.103,0.393l-0.41,1.436l0.034,0.171l-0.171,1.162v0.837l-0.256,0.564l0.068,0.479
		l-0.068,0.803c0,0.639,0.096,1.162,0.29,1.572l-0.034,0.188l0.308,0.205l0.358-0.103l0.41,0.171l0.496-0.239
		c0.125-0.103,0.324-0.188,0.598-0.256l0.24-0.24l0.068,0.104l0.205-0.273l0.358-0.104c0.262-0.228,0.552-0.381,0.872-0.461
		c0.079-0.147,0.244-0.239,0.495-0.273l0.205-0.324l0.394-0.035l-0.086-0.375h0.154l0.068-0.188l0.734-0.376l0.068-0.428
		l0.666,0.035C31.164,68.075,31.209,68.149,31.254,68.24z"/>
	<path d="M48.379,56.123l-0.171,0.358l0.034,0.513l-0.359,0.223l-0.171,0.717c-0.023,0.104-0.131,0.257-0.325,0.462l-0.068,0.462
		h-0.376c0.114,0.342,0.171,0.553,0.171,0.632c0,0.183-0.188,0.319-0.564,0.41v0.257l-0.308,1.179l-0.291,0.563h-0.205
		c0.137,0.137,0.205,0.28,0.205,0.428l-0.444,0.444l-0.803,2.103l-0.735,1.264v0.564c0,0.08-0.083,0.194-0.248,0.342
		c-0.166,0.148-0.248,0.268-0.248,0.359c0,0.068,0.057,0.159,0.171,0.273c-0.194,0.159-0.45,0.238-0.769,0.238l0.137,0.394
		c-0.239,0.354-0.365,0.599-0.376,0.735c-0.239,0.182-0.359,0.342-0.359,0.479c0,0.102,0.011,0.177,0.034,0.222h-0.273v0.376
		l-0.461,0.291l-0.239,0.443l-0.701,0.77l-0.906,1.401c-0.183,0.262-0.439,0.394-0.769,0.394c-0.467,0-0.792-0.154-0.974-0.462
		l-1.128-1.777l-0.068-0.632l-0.205-0.137l-0.034-0.804L36.16,69.18v-0.804l-0.837-2.136l0.034-0.428l-0.222-0.393
		c-0.057-0.126-0.103-0.365-0.137-0.719l-0.24-0.323l-0.171-0.461c-0.068-0.183-0.154-0.319-0.256-0.41l-0.41-0.377l-0.308-1.23
		l-0.359-0.307c-0.137-0.126-0.245-0.263-0.325-0.41L32.621,60.6c-0.091,0.046-0.16,0.068-0.205,0.068
		c-0.239,0-0.359-0.301-0.359-0.905c0-0.398,0.233-0.678,0.701-0.837c0.41,0.342,0.703,0.595,0.88,0.76
		c0.176,0.166,0.398,0.513,0.666,1.043c0.268,0.529,0.516,0.817,0.744,0.863c-0.103,0.022-0.154,0.079-0.154,0.17
		c0,0.058,0.034,0.137,0.103,0.24v0.29l0.427,0.342l-0.103,0.308l0.103,0.701l0.393,1.127l0.103,0.104l0.068,0.461l0.171,0.103
		v0.342l0.427,1.538l0.103,0.598l0.564,1.266l0.444,1.641l0.359,0.29v0.068c0,0.319,0.245,0.479,0.735,0.479h0.137v-0.171
		c0-0.034,0.077-0.077,0.23-0.128c0.154-0.052,0.299-0.22,0.436-0.505c0.091,0.046,0.148,0.068,0.171,0.068
		c0.068,0,0.103-0.045,0.103-0.137c0-0.045-0.023-0.137-0.068-0.273l0.803-0.461c0.011-0.147,0.04-0.284,0.085-0.41
		c0.045-0.125,0.114-0.233,0.205-0.324l0.308-0.273l0.632-0.906l0.205-0.633l0.359-0.256l0.137-0.376
		c0.045-0.113,0.159-0.257,0.342-0.427l-0.034-0.377l0.171-0.068l0.12-0.358l0.137,0.137c-0.046-0.137-0.068-0.228-0.068-0.273
		c0-0.159,0.08-0.25,0.239-0.273c0.068-0.171,0.171-0.257,0.308-0.257c0.171-0.33,0.256-0.654,0.256-0.974h0.273l0.034-0.462
		c0.171-0.353,0.279-0.677,0.325-0.974l0.205-0.034l0.496-1.436l0.103-0.137l-0.034,0.205c0.159-0.182,0.265-0.379,0.316-0.59
		c0.052-0.21,0.094-0.316,0.128-0.316s0.085,0.023,0.154,0.068l0.443-1.608l0.325-0.428v-0.205l0.239,0.068l-0.068-0.564
		c0.308-0.284,0.527-0.606,0.658-0.965s0.259-0.539,0.385-0.539c0.068,0,0.131,0.012,0.188,0.035l0.033-0.205L48.379,56.123z"/>
	<path d="M59.573,69.709c0.171,0.263,0.256,0.456,0.256,0.581c0,0.092-0.105,0.285-0.316,0.581
		c-0.211,0.297-0.373,0.609-0.487,0.939l-0.256,0.035l-0.376,0.734l-0.427,0.068l-0.94,0.633l-0.171,0.375l-0.291-0.033
		l-0.308,0.358h-0.496l-0.103,0.171l-0.239-0.034c-0.251,0-0.473,0.113-0.667,0.342l-0.222-0.171
		c-0.239,0.113-0.433,0.171-0.581,0.171c-0.262,0-0.473-0.058-0.632-0.171c-0.114,0.022-0.268,0.034-0.461,0.034l-0.205-0.171
		c-0.627-0.034-1.048-0.211-1.265-0.529v-0.428l-0.564-0.308l-0.137-0.358c-0.046-0.114-0.171-0.263-0.376-0.445V71.81l-0.393-1.657
		l0.068-1.179l0.137-0.667v-0.735l0.188-0.632l-0.068-0.462c0.125-0.102,0.205-0.23,0.239-0.384s0.103-0.327,0.205-0.521
		c-0.046-0.205-0.091-0.495-0.137-0.872l0.308-0.256l-0.308-0.342c0.159-0.262,0.239-0.428,0.239-0.496l-0.171-1.042
		c0-0.25,0.034-0.495,0.103-0.735c0.137,0.205,0.291,0.309,0.461,0.309c0.091,0,0.313-0.046,0.667-0.137
		c-0.023-0.068-0.034-0.148-0.034-0.24c0-0.159,0.091-0.301,0.273-0.427c0.182-0.569,0.438-1.104,0.769-1.606
		c0.216-0.171,0.325-0.404,0.325-0.701h0.171l0.171-0.342l0.206-0.085c0.045-0.147,0.165-0.318,0.359-0.513
		c0.262-0.079,0.575-0.348,0.94-0.803c0.045,0.022,0.142,0.033,0.291,0.033c0.034,0,0.125-0.13,0.273-0.393
		c0.398-0.137,0.609-0.205,0.632-0.205c0.103,0,0.205,0.068,0.308,0.205l0.325-0.068l0.171,0.137h0.205
		c0.125,0.376,0.359,0.564,0.701,0.564h0.103c0.034,0.159,0.108,0.279,0.222,0.358l-0.154,0.068
		c0.398,0.194,0.598,0.644,0.598,1.351l-0.103,0.393l0.103,0.975l-0.171,0.153l-0.393,1.042l-0.701,0.872l-0.034,0.495
		c-0.832,0.684-1.516,1.151-2.051,1.402c-0.046,0.137-0.12,0.205-0.222,0.205c-0.046,0-0.137-0.023-0.273-0.068l-0.769,0.529h-0.461
		l-0.667,0.308l-0.291-0.171c-0.08-0.045-0.319-0.091-0.718-0.137c-0.354,0.331-0.53,0.758-0.53,1.281l-0.239,0.291
		c-0.046,0.434-0.103,0.734-0.171,0.906l-0.188,0.102l0.188,1.266l-0.188,0.17l0.034,0.394l-0.034,0.479
		c0,0.08,0.028,0.297,0.085,0.649c0.057,0.354,0.148,0.559,0.273,0.615c-0.057,0.16,0.054,0.354,0.333,0.581
		c0.279,0.229,0.578,0.388,0.897,0.479v0.205l0.906,0.137l1.299,0.068l0.872-0.103c0.353-0.25,0.609-0.404,0.769-0.461l0.273-0.41
		h0.325l0.034-0.172c0.501-0.17,0.777-0.287,0.829-0.35c0.051-0.063,0.077-0.122,0.077-0.18c0.068-0.137,0.171-0.205,0.308-0.205
		l0.103-0.223c0.513-0.079,0.832-0.415,0.957-1.008C59.276,69.755,59.413,69.709,59.573,69.709z M56.702,61.729
		c0.091-0.012,0.245-0.154,0.461-0.428l0.103-0.41c0.285-0.479,0.45-0.783,0.496-0.914c0.045-0.131,0.068-0.293,0.068-0.487
		c0-0.193-0.08-0.535-0.239-1.025l-0.701-0.239c-0.183,0.046-0.302,0.068-0.359,0.068l-0.205-0.068
		c-0.171,0-0.291,0.103-0.359,0.308c-0.205,0-0.519,0.085-0.94,0.257l-0.103,0.238c-0.046-0.022-0.091-0.033-0.137-0.033
		c-0.034,0-0.066,0.006-0.094,0.017c-0.028,0.012-0.054,0.028-0.077,0.052c-0.023,0.022-0.046,0.048-0.068,0.076
		c-0.023,0.029-0.042,0.066-0.06,0.111c-0.017,0.046-0.034,0.094-0.051,0.146c-0.018,0.051-0.034,0.103-0.052,0.153
		c-0.017,0.052-0.088,0.151-0.213,0.299l-0.256,0.309l-0.496,0.939l-0.256,0.223c-0.08,0.068-0.143,0.216-0.188,0.443
		c-0.046,0.229-0.354,0.775-0.923,1.641l0.239,0.137l0.12,0.291l0.581,0.171c0.33-0.228,0.684-0.382,1.06-0.462l0.103-0.205
		c0.125,0.046,0.216,0.068,0.273,0.068c0.114,0,0.222-0.068,0.325-0.205l0.41-0.068l0.256-0.427h0.239l0.171-0.376
		c0.308,0,0.598-0.143,0.872-0.428C56.702,61.901,56.702,61.729,56.702,61.729z"/>
	<path d="M74.458,70.154l-0.239,0.273c-0.057,0.08-0.211,0.434-0.461,1.06l-0.496,0.359l0.034,0.205h-0.461l-0.444,0.495h-0.598
		L71.4,72.751c-0.114,0-0.239,0.068-0.376,0.205c-0.148-0.068-0.302-0.103-0.461-0.103c-0.125,0-0.273,0.034-0.444,0.103v0.205
		l-0.632-0.068l-0.496,0.068l-0.463-0.068l-0.068,0.103l-0.171-0.103l-0.308,0.103h-0.222c-0.16,0-0.331,0.028-0.513,0.086
		l-0.359-0.12l-0.273,0.188l-0.137-0.154l-0.256,0.154c-0.296-0.172-0.542-0.257-0.735-0.257c-0.068,0-0.171,0.034-0.308,0.103
		c-0.148-0.08-0.348-0.131-0.598-0.154l-0.769-0.085c-0.239,0-0.427,0.022-0.564,0.068l-0.068-0.137l-0.308,0.205
		c-0.068-0.092-0.154-0.137-0.256-0.137l-0.103-0.205c-0.718-0.034-1.077-0.547-1.077-1.538l0.735-0.103l-0.034-0.257l0.171-0.238
		l0.103,0.205h0.205v0.17l0.325-0.17c0.182,0.033,0.273,0.119,0.273,0.256c0,0.068-0.034,0.171-0.103,0.308l0.308,0.034v0.529
		l0.889,0.137l0.342,0.309l0.103-0.172l4.478-0.273l1.538-0.29l0.085-0.171l0.375-0.069l0.103-0.137
		c0.535-0.103,1.002-0.291,1.401-0.564l0.103,0.104l0.068-0.205l0.256-0.206l0.034-0.12l-0.171-0.239l0.068-0.308l-0.392-0.325
		l-0.068-0.273c-0.183-0.068-0.296-0.137-0.342-0.205l-0.154,0.068l-0.342-0.324h-0.137l-0.154-0.205h-0.342
		c-0.068-0.182-0.2-0.273-0.393-0.273l-0.239,0.034c-0.388,0-0.735-0.12-1.042-0.358h-0.359l-0.444-0.273l-0.222,0.137l-0.103-0.172
		h-0.239l-0.393-0.324l-1.042-0.444l-0.393-0.358l-1.179-0.205l-0.034-0.104l-0.991-0.7l-0.444-1.128l-0.359-0.547l-0.103-1.623
		l0.103-0.172c0-0.455,0.12-0.854,0.359-1.195c0.433-0.251,0.655-0.496,0.667-0.735l0.239,0.034
		c0.091-0.284,0.308-0.564,0.649-0.838l0.426-0.377l2.033-0.872l1.026-0.189l1.008-0.306l1.572,0.102l0.068,0.205h0.103
		c0.193,0,0.347,0.063,0.461,0.188v0.308l0.427,0.308c-0.125,0.547-0.188,0.854-0.188,0.923c0,0.205-0.103,0.308-0.308,0.308
		c-0.091,0-0.256-0.245-0.496-0.735l-0.94-0.068l-0.239,0.068c-0.365-0.273-0.576-0.41-0.632-0.41c-0.068,0-0.103,0.035-0.103,0.104
		L69.09,59.03c-0.388,0-0.701,0.104-0.94,0.309c-0.433,0.079-0.735,0.222-0.906,0.427h-0.393l-0.291,0.222
		c-0.08,0.058-0.308,0.137-0.684,0.24l-0.137,0.17l-0.188,0.104l-0.479,0.461l-0.325,0.513c-0.331,0.217-0.501,0.358-0.513,0.427
		l-0.359,1.436l0.171,0.104v0.102c0,0.388,0.188,0.719,0.564,0.992v0.17l0.94,0.564h0.226l0.513,0.513h0.701l0.427,0.358
		l0.803,0.104l0.239,0.205l1.504,0.461c0,0.137,0.085,0.205,0.256,0.205c0.285,0,0.547,0.068,0.786,0.205
		c0.239,0.137,0.467,0.223,0.684,0.256l0.034,0.172l0.308,0.17h0.667l0.598,0.394c0.068,0.251,0.222,0.462,0.461,0.632l-0.034,0.104
		l0.171,0.238l0.308,0.068l-0.137,0.257C74.281,69.789,74.412,69.972,74.458,70.154z"/>
</g>
</svg>
