<?xml version="1.0" encoding="utf-8"?>
<!-- Generator: Adobe Illustrator 17.0.0, SVG Export Plug-In . SVG Version: 6.00 Build 0)  -->
<!DOCTYPE svg PUBLIC "-//W3C//DTD SVG 1.1//EN" "http://www.w3.org/Graphics/SVG/1.1/DTD/svg11.dtd">
<svg version="1.1" id="图层_1" xmlns="http://www.w3.org/2000/svg" xmlns:xlink="http://www.w3.org/1999/xlink" x="0px" y="0px"
	 width="78.511px" height="21.003px" viewBox="-28.754 28.754 78.511 21.003" enable-background="new -28.754 28.754 78.511 21.003"
	 xml:space="preserve">
<g>
	<path d="M-5.888,35.966l-0.7,0.632l-0.564-0.068l-0.496,0.377l-0.375-0.24l-1.367,0.394l-0.257,0.479l-0.547-0.446l-0.804,1.076
		h0.273c-0.033,0.388-0.188,0.735-0.461,1.043h0.068c0.103,0,0.154,0.086,0.154,0.256c0,0.604-0.074,1.105-0.223,1.504l0.188,0.172
		c0,0.193-0.037,0.336-0.11,0.427c-0.075,0.092-0.111,0.183-0.111,0.273c0,0.137,0.046,0.358,0.137,0.667l-0.205,0.17l0.034,1.692
		l-0.308,1.88h0.069l-0.137,0.564l0.137,0.238l-0.068,0.564l0.12,0.291c0.079,0.228,0.119,0.455,0.119,0.684
		c0,0.113-0.08,0.232-0.239,0.358l0.034,0.171c0,0.239-0.108,0.45-0.324,0.633l-0.035-0.359c-0.318-0.49-0.479-0.826-0.479-1.008
		v-1.334l-0.153-0.443l0.257-0.223l-0.257-0.136l-0.103-0.564v-0.512l0.103-0.035l-0.103-0.393l0.103-1.367l-0.034-1.265
		l0.256-0.905l-0.222-0.309l0.153-0.324v-2.17l0.104-1.111l-0.667,0.239l-0.171-0.205l-0.291,0.205l-0.342-0.137
		c-0.387,0.194-0.7,0.271-0.939,0.23c-0.239-0.039-0.404-0.06-0.496-0.06c-0.17,0-0.324,0.023-0.461,0.068l-1.367,0.461
		l-1.606-0.205l-0.171,0.068c-0.308-0.113-0.541-0.17-0.701-0.17c-0.125,0-0.322,0.051-0.589,0.153
		c-0.269,0.103-0.448,0.153-0.538,0.153l-0.547-0.137l-0.223,0.479l-0.598-0.443l-0.872,0.205l-0.342-0.205l-0.29,0.273l-0.41-0.052
		c-0.137-0.011-0.348-0.097-0.633-0.257l-0.034,0.24l-0.274-0.1c-0.444,0-0.832,0.052-1.162,0.154
		c-0.331,0.103-0.495,0.45-0.495,1.043v1.281l-0.137,0.923l0.137,0.615l-0.309,0.667l0.309,0.598l-0.24,1.538l0.172,0.563
		l-0.068,0.906l0.238,0.598l-0.102,0.291l0.068,0.581l-0.137,0.068c-0.399-0.058-0.61-0.273-0.633-0.649l-0.068-1.658
		c-0.467-0.547-0.701-0.882-0.701-1.008c0-0.262,0.177-0.45,0.53-0.564l-0.239-0.238l0.034-0.564l-0.137-0.428l-0.188-2.785v-0.889
		l-0.137-0.479l-0.598-0.359l-0.068-1.008l0.803-0.529c0.24-0.695,0.359-1.276,0.359-1.744c0-0.125-0.023-0.301-0.068-0.529
		l0.308,0.137l-0.171-0.343l-0.103-1.299l0.205-0.803l-0.205-1.367v-0.77l0.171-0.906l0.633-0.392
		c0.25,0.229,0.518,0.382,0.803,0.461l0.034,0.564l0.273,0.342c-0.159,0.57-0.239,0.895-0.239,0.975
		c0,0.182,0.057,0.302,0.171,0.358c0.022,0.068,0.034,0.183,0.034,0.342c0,0.376-0.125,1.276-0.376,2.7l0.239,0.564l-0.239,0.342
		c-0.012,0.342-0.068,0.797-0.171,1.367h0.734l0.377,0.137l0.905-0.137l0.563,0.068l0.771-0.067l0.666,0.324v-0.086
		c0-0.159,0.068-0.238,0.205-0.238c0.092,0,0.199,0.045,0.325,0.137h0.599l1.35-0.068c0.25,0,0.428,0.022,0.529,0.068l0.256-0.309
		l0.239,0.172c0.523,0.057,0.849,0.102,0.975,0.137c0.137-0.068,0.244-0.104,0.324-0.104l0.137,0.035l3.811-0.41l1.539,0.102
		l-0.309-0.496l0.172-0.205l-0.172-0.769l0.172-0.564l-0.24-1.504l0.24-0.564l-0.701-2.067c-0.046-0.137-0.068-0.239-0.068-0.308
		c0-0.171,0.074-0.313,0.223-0.428c0.147-0.113,0.25-0.17,0.307-0.17h0.24l-0.137-0.633h0.529l0.171,0.393l0.632-0.137v0.547
		l0.41-0.137v0.633l-0.238,0.461l0.307,0.906v0.444l0.188,0.495l-0.257,0.701l0.068,0.564l-0.205,2.803l0.838-0.137l0.77-0.052
		l1.299-0.342l0.598,0.068l0.444-0.068h0.819V35.966z M-5.015,35.966l-0.564,0.394c-0.16-0.035-0.239-0.12-0.239-0.257
		c0-0.182,0.137-0.273,0.41-0.273C-5.238,35.829-5.107,35.875-5.015,35.966z"/>
	<path d="M6.622,39.299l-0.239,0.734l0.137,0.308l-0.119,0.82c-0.012,0.103-0.098,0.285-0.257,0.547v0.41l-0.257,0.7l-0.205,0.309
		C5.614,43.206,5.5,43.502,5.34,44.016l-0.256,0.102L4.947,44.58l-0.376,0.239l-0.29,0.633L3.767,45.69l-0.051,0.462l-0.444,0.171
		c-0.217,0.285-0.356,0.468-0.419,0.547c-0.063,0.08-0.217,0.16-0.461,0.239c-0.246,0.08-0.408,0.148-0.487,0.205
		c-0.058,0.364-0.382,0.569-0.974,0.615c-0.137,0.171-0.303,0.257-0.496,0.257c-0.057,0-0.148-0.023-0.273-0.068
		c-0.319,0.284-0.615,0.455-0.889,0.512L-1,49.058l-0.461-0.273l-0.104,0.205l-0.512-0.205l-1.23-0.119
		c-0.205-0.41-0.508-0.827-0.906-1.248l0.137-0.461l-0.496-1.266l0.205-0.41l-0.205-0.957l0.205-0.547
		c0-0.057-0.017-0.207-0.051-0.452c-0.034-0.245-0.051-0.401-0.051-0.47c0-0.24,0.119-0.434,0.358-0.582v-0.189
		c0-0.262,0.068-0.519,0.205-0.77h0.205c0.171-0.193,0.257-0.415,0.257-0.666l-0.104-0.239l0.104-0.53v-0.342
		c0.205-0.25,0.307-0.506,0.307-0.769l-0.102-0.563c0-0.172,0.033-0.309,0.102-0.41c0.354-0.183,0.53-0.359,0.53-0.53
		c0-0.113-0.046-0.233-0.137-0.358l0.342-0.599c0.046-0.091,0.116-0.165,0.214-0.222c0.096-0.058,0.156-0.097,0.18-0.12
		l-0.068-0.342c0.363-0.034,0.547-0.222,0.547-0.563c0-0.205-0.035-0.416-0.104-0.633c0.775,0,1.287-0.398,1.539-1.196h0.222
		c0.159-0.159,0.273-0.239,0.342-0.239c0.022,0,0.122,0.028,0.3,0.086c0.176,0.057,0.452,0.085,0.828,0.085l0.547-0.24v0.239
		c0.239,0.023,0.535,0.153,0.889,0.394h0.479c0.113,0.228,0.223,0.342,0.324,0.342l0.068-0.035c0.262,0.41,0.53,0.701,0.804,0.872
		l0.171,0.427L5.204,35.3l0.547,0.804l0.564,1.606v0.324L6.622,39.299z M5.512,40.273c0.137-0.171,0.205-0.313,0.205-0.427
		c0-0.08-0.041-0.163-0.12-0.248c-0.08-0.086-0.12-0.14-0.12-0.162h0.205c-0.033-0.137-0.113-0.257-0.238-0.359l0.068-0.103
		l-0.24-0.563l0.068-0.77l-0.324-0.547c-0.251-0.159-0.376-0.279-0.376-0.359v-0.102c0-0.092-0.042-0.151-0.128-0.18
		s-0.129-0.077-0.129-0.146v-0.033c0-0.034,0.052-0.182,0.154-0.444l-0.223-0.171l-0.341-0.035l-0.137-0.257l0.137-0.205
		l-0.461-0.238L3.17,34.599l-0.991-0.41l-0.41-0.085c-0.673,0-1.003,0.188-0.991,0.563l0.051,1.162l-0.7,0.034l-1.094,0.666
		l-0.103,0.377l-0.393,0.256l-0.172,1.008l-0.342,0.24c-0.068,0.033-0.102,0.199-0.102,0.495c0,0.263,0.021,0.473,0.068,0.632
		l-0.428,0.24c-0.092,0.045-0.137,0.268-0.137,0.666c0,0.183-0.108,0.359-0.324,0.529v0.342l-0.309,0.496v0.308l-0.102,0.222
		l0.068,0.479l-0.462,1.129l0.153,0.375v0.82l-0.153,0.582l0.034,0.854l0.513,0.667c0.057,0.092,0.262,0.217,0.615,0.376
		l0.103,0.171l0.239-0.068l0.222,0.068l0.41-0.171l0.838,0.034l0.393-0.103l0.104-0.239l0.358,0.034
		c0.364,0,0.547-0.119,0.547-0.359l0.495,0.137l0.104-0.273l0.324-0.033l0.171-0.394c0.251-0.193,0.388-0.353,0.41-0.479H2.74
		l0.172-0.358l0.598-0.53l0.223-0.325c0.09-0.125,0.193-0.222,0.307-0.29l0.496-0.257c0.057-0.318,0.159-0.643,0.308-0.974
		l-0.067-0.309l0.495-0.223l-0.068-0.17c0.137-0.194,0.262-0.359,0.377-0.496H5.409c0.092-0.125,0.137-0.228,0.137-0.308
		c0-0.068-0.017-0.153-0.051-0.257c-0.034-0.102-0.051-0.17-0.051-0.205c0-0.147,0.033-0.307,0.102-0.479
		c0.068-0.17,0.104-0.278,0.104-0.324C5.649,40.364,5.602,40.307,5.512,40.273z"/>
	<path d="M37.726,44.648l-0.188,0.273L37.3,44.989c0,0.229-0.078,0.404-0.23,0.53c-0.154,0.125-0.231,0.222-0.231,0.29v0.068
		l-0.103,0.068c-0.068,0.16-0.191,0.299-0.367,0.419c-0.178,0.119-0.288,0.18-0.334,0.18l-0.307-0.052l-0.035,0.358
		c-0.193,0.183-0.302,0.273-0.324,0.273c-0.023,0-0.171-0.022-0.444-0.068c-0.251,0.148-0.507,0.223-0.769,0.223
		c-0.184,0-0.57-0.051-1.162-0.154c-0.08-0.113-0.16-0.17-0.24-0.17s-0.176,0.033-0.29,0.102c-0.058-0.159-0.239-0.318-0.547-0.479
		l0.068-0.256c-0.263-0.113-0.394-0.348-0.394-0.701l0.035-0.307l-0.41-0.325l-0.223-1.042l-0.308-0.564v-0.238l-0.239-1.128
		l0.034-0.444l-0.257-1.23l-0.033-0.53l0.068-1.078l-0.137-1.367l-0.462,0.496l-0.735,1.281l-0.307,0.734
		c-0.457,0.319-0.747,0.695-0.872,1.129c-0.239,0-0.358,0.256-0.358,0.769c-0.137,0.148-0.257,0.311-0.359,0.487
		c-0.102,0.176-0.186,0.316-0.248,0.418c-0.063,0.104-0.094,0.16-0.094,0.172v0.085c-0.388,0.354-0.633,0.746-0.734,1.179
		c-0.058,0.046-0.172,0.223-0.342,0.53c-0.172,0.308-0.474,0.707-0.906,1.196c-0.217,0.092-0.393,0.302-0.529,0.633
		c-0.092,0.216-0.215,0.348-0.367,0.393c-0.154,0.046-0.231,0.165-0.231,0.359v0.153c-0.183,0-0.53,0.114-1.042,0.342
		c-0.205-0.023-0.348-0.159-0.428-0.41l-0.068-0.495l-0.205-0.428v-0.41l-0.291-1.162c0.023-0.068,0.035-0.147,0.035-0.239
		c0-0.113-0.058-0.268-0.172-0.462l0.137-1.179l-0.137-0.257l0.137-0.563l-0.068-0.308v-0.239l-0.137-0.325l0.24-0.512l-0.172-1.094
		l0.068-0.309l0.104-1.299l-0.24-0.803l0.068-0.633l-0.17-0.495c-0.217-0.535-0.352-0.886-0.402-1.051
		c-0.05-0.165-0.128-0.248-0.23-0.248c-0.023-0.022-0.068-0.034-0.137-0.034c-0.08,0-0.371,0.165-0.871,0.496L19.1,35.93
		l-0.428,0.428l-0.939,1.281l-0.068,0.393l-0.564,0.633l-0.238,0.666c-0.137,0.126-0.248,0.325-0.334,0.599
		s-0.182,0.427-0.291,0.462c-0.107,0.033-0.253,0.119-0.436,0.256l-0.033,0.633c-0.104,0.147-0.205,0.33-0.309,0.547
		c-0.102,0.216-0.228,0.393-0.375,0.529c-0.148,0.137-0.257,0.376-0.325,0.718c-0.263,0-0.394,0.16-0.394,0.479
		c-0.068,0.239-0.193,0.358-0.375,0.358c-0.092,0.229-0.137,0.394-0.137,0.496v0.103c-0.285,0.239-0.428,0.388-0.428,0.444
		c0,0.068,0.034,0.143,0.103,0.223c-0.263,0.125-0.468,0.342-0.615,0.648c-0.148,0.309-0.269,0.496-0.358,0.564v0.154
		c0,0.159-0.047,0.273-0.137,0.342c-0.092,0.068-0.248,0.213-0.471,0.436c-0.223,0.222-0.407,0.333-0.555,0.333
		c-0.172,0-0.297-0.268-0.377-0.804c0.023-0.045,0.035-0.113,0.035-0.205c0-0.182-0.08-0.335-0.24-0.461v-0.496
		c0-0.182,0.046-0.364,0.137-0.547l-0.17-0.769l0.033-0.563l-0.033-0.599v-0.137c0-0.25,0.057-0.438,0.17-0.563l0.068-0.273
		c0-0.092-0.017-0.268-0.051-0.53c-0.034-0.262-0.051-0.416-0.051-0.462v-0.563c0.068-0.228,0.17-0.41,0.307-0.547l-0.273-0.358
		c0.092-0.08,0.12-0.163,0.086-0.248c-0.034-0.086-0.051-0.151-0.051-0.197c0-0.079,0.059-0.219,0.18-0.418
		c0.119-0.199,0.195-0.402,0.23-0.607l-0.24-0.666l0.104-0.342l-0.205-1.196l0.099-0.48l-0.205-0.957l0.068-0.632l-0.238-0.547
		c0.238-0.547,0.473-0.814,0.7-0.804l0.137,0.068l0.103,0.479c0.296,0.068,0.444,0.257,0.444,0.563l-0.068,0.735
		c0,0.148,0.097,0.239,0.29,0.273c-0.218,0.333-0.325,0.577-0.325,0.737v0.119l0.188,1.777l-0.085,1.333l-0.137,0.376l0.137,0.428
		l-0.103,0.17l0.154,0.257c-0.172,0.126-0.257,0.273-0.257,0.444l0.068,0.291c0,0.17-0.068,0.307-0.205,0.41l0.137,0.974
		l-0.137,0.358c-0.103,0.251-0.134,0.462-0.095,0.633c0.041,0.171,0.061,0.297,0.061,0.376c0,0.148-0.023,0.245-0.068,0.29
		c0.113,0.229,0.171,0.354,0.171,0.377c0,0.091-0.058,0.211-0.171,0.358l0.342,0.239l0.666-0.871l0.137-0.496
		c0.125-0.068,0.229-0.168,0.309-0.299c0.079-0.131,0.137-0.271,0.17-0.419c0.035-0.147,0.172-0.387,0.41-0.718
		c0.046,0,0.117-0.057,0.215-0.171c0.096-0.113,0.215-0.279,0.357-0.495c0.143-0.217,0.311-0.428,0.505-0.633
		c0.034-0.113,0.088-0.23,0.163-0.351c0.073-0.119,0.146-0.219,0.221-0.299c0.074-0.079,0.168-0.313,0.283-0.7l0.393-0.701
		l0.051-0.256c0.035-0.092,0.148-0.245,0.342-0.462l0.65-0.684c0.079,0,0.216-0.205,0.41-0.615c0.193-0.41,0.41-0.727,0.648-0.948
		c0.24-0.223,0.365-0.413,0.377-0.572c0.205-0.035,0.307-0.143,0.307-0.325c0.251-0.103,0.394-0.262,0.428-0.479l0.103,0.034
		c0.114,0,0.245-0.223,0.394-0.666c0.342-0.309,0.586-0.462,0.734-0.462c0.012,0,0.291,0.068,0.838,0.205
		c0.045,0.092,0.068,0.165,0.068,0.222c0,0.046-0.023,0.114-0.068,0.205l0.238,0.068c0,0.114,0.166,0.405,0.496,0.872v0.563
		l0.308,0.359v0.444c0.262,0.559,0.394,1.015,0.394,1.367l-0.137,0.563l0.137,0.496l-0.325,0.376l0.188,1.094
		c-0.08,0.239-0.12,0.519-0.12,0.837l0.12,0.94l-0.086,0.308l0.086,0.359l-0.12,0.137c0.171,0.74,0.257,1.373,0.257,1.896
		l-0.068,0.273l-0.154,0.137c0.171,0.251,0.256,0.519,0.256,0.803l0.599,0.188l1.606-1.966c0.068-0.068,0.174-0.265,0.316-0.589
		c0.143-0.325,0.27-0.584,0.385-0.778c0.125,0,0.213-0.167,0.264-0.504c0.053-0.336,0.186-0.526,0.402-0.572
		c0-0.171,0.022-0.293,0.068-0.367c0.045-0.074,0.244-0.225,0.598-0.453v-0.068c0-0.318,0.223-0.655,0.667-1.008
		c0.103-0.354,0.251-0.678,0.444-0.975c0.318-0.318,0.523-0.569,0.615-0.752l0.359-0.684c0.147-0.262,0.256-0.529,0.324-0.803
		c0.376-0.137,0.689-0.593,0.939-1.367c0.262-0.068,0.439-0.313,0.53-0.735L31.317,34l0.479,0.257l-0.17,0.171l0.238,0.239
		c-0.182,0.068-0.273,0.153-0.273,0.257c0,0.102,0.057,0.182,0.172,0.238l-0.24,0.462l-0.205,1.606
		c0.104,0.058,0.183,0.137,0.24,0.239c-0.184,0.273-0.273,0.673-0.273,1.196l0.033,0.633l-0.068,0.238l0.104,0.462
		c-0.023,0.034-0.066,0.083-0.129,0.146s-0.094,0.128-0.094,0.196c0,0.068,0.039,0.171,0.119,0.308
		c0.137,0.046,0.205,0.199,0.205,0.461c0,0.068-0.033,0.137-0.102,0.205c0.045,0.058,0.068,0.12,0.068,0.188
		c0,0.034-0.035,0.103-0.104,0.205c0,0.444,0.108,0.917,0.325,1.419c0.091,0.216,0.183,0.632,0.273,1.247l0.444,0.239l0.171,0.77
		c0.262,0.137,0.427,0.29,0.495,0.461l0.428,0.171l0.513,0.103c0.183,0.046,0.313,0.068,0.394,0.068c0.125,0,0.29-0.04,0.495-0.119
		c0.205-0.08,0.37-0.163,0.495-0.248c0.125-0.086,0.342-0.197,0.65-0.334c0.193-0.25,0.369-0.529,0.529-0.837l0.461-0.205
		l0.205-0.358l0.479,0.033C37.674,44.437,37.692,44.613,37.726,44.648z"/>
	<path d="M49.5,44.477c0.172,0.262,0.257,0.456,0.257,0.581c0,0.092-0.105,0.285-0.316,0.581c-0.211,0.297-0.373,0.609-0.487,0.939
		l-0.256,0.035l-0.376,0.734l-0.427,0.068l-0.94,0.633l-0.171,0.375l-0.291-0.033l-0.307,0.358H45.69l-0.103,0.171l-0.239-0.034
		c-0.251,0-0.473,0.113-0.666,0.342l-0.223-0.171c-0.239,0.113-0.434,0.171-0.581,0.171c-0.263,0-0.474-0.058-0.632-0.171
		c-0.115,0.022-0.269,0.034-0.462,0.034l-0.205-0.171c-0.627-0.034-1.048-0.211-1.265-0.529v-0.428l-0.564-0.308l-0.137-0.358
		c-0.045-0.114-0.17-0.263-0.375-0.445v-0.273l-0.394-1.657l0.068-1.179l0.137-0.667V42.34l0.188-0.632l-0.068-0.462
		c0.125-0.102,0.205-0.23,0.238-0.384c0.035-0.154,0.104-0.327,0.205-0.521c-0.045-0.205-0.091-0.495-0.137-0.872l0.309-0.256
		l-0.307-0.342c0.16-0.262,0.24-0.428,0.24-0.496l-0.172-1.042c0-0.25,0.035-0.495,0.104-0.735c0.137,0.205,0.29,0.309,0.461,0.309
		c0.091,0,0.313-0.046,0.666-0.137c-0.022-0.068-0.033-0.148-0.033-0.24c0-0.159,0.09-0.301,0.273-0.427
		c0.181-0.57,0.437-1.105,0.768-1.607c0.216-0.171,0.326-0.404,0.326-0.701h0.17l0.171-0.342l0.205-0.085
		c0.045-0.147,0.164-0.318,0.359-0.512c0.262-0.08,0.575-0.348,0.94-0.803c0.045,0.022,0.142,0.033,0.29,0.033
		c0.034,0,0.125-0.13,0.273-0.393c0.399-0.136,0.61-0.205,0.633-0.205c0.104,0,0.205,0.068,0.309,0.205l0.323-0.068l0.171,0.137
		h0.205c0.125,0.376,0.358,0.564,0.7,0.564h0.104c0.033,0.159,0.107,0.279,0.222,0.358l-0.153,0.068
		c0.398,0.195,0.597,0.645,0.597,1.352l-0.102,0.392l0.103,0.975l-0.172,0.153l-0.394,1.042l-0.7,0.872l-0.034,0.495
		c-0.832,0.684-1.516,1.151-2.051,1.402c-0.046,0.137-0.119,0.205-0.223,0.205c-0.045,0-0.137-0.023-0.273-0.068l-0.769,0.529
		h-0.462l-0.666,0.308l-0.291-0.171c-0.08-0.045-0.318-0.091-0.717-0.137c-0.354,0.331-0.53,0.758-0.53,1.281l-0.239,0.291
		c-0.046,0.434-0.103,0.734-0.171,0.906l-0.188,0.102l0.188,1.266l-0.188,0.17l0.035,0.394L40.75,44.99
		c0,0.08,0.029,0.297,0.086,0.649c0.057,0.354,0.148,0.559,0.273,0.615c-0.057,0.16,0.054,0.354,0.333,0.581
		c0.279,0.229,0.578,0.388,0.897,0.479v0.205l0.906,0.137l1.299,0.068l0.871-0.103c0.354-0.25,0.609-0.404,0.77-0.461l0.273-0.41
		h0.325l0.034-0.172c0.501-0.17,0.777-0.287,0.829-0.35c0.051-0.063,0.076-0.122,0.076-0.18c0.068-0.137,0.172-0.205,0.309-0.205
		l0.102-0.223c0.514-0.079,0.832-0.415,0.957-1.008C49.204,44.523,49.341,44.477,49.5,44.477z M46.629,36.496
		c0.092-0.012,0.245-0.154,0.462-0.428l0.103-0.41c0.285-0.478,0.449-0.783,0.496-0.914c0.045-0.131,0.068-0.293,0.068-0.487
		c0-0.193-0.08-0.535-0.24-1.025l-0.7-0.239c-0.183,0.046-0.302,0.068-0.358,0.068l-0.206-0.069c-0.172,0-0.291,0.103-0.359,0.308
		c-0.205,0-0.519,0.085-0.939,0.257l-0.104,0.238c-0.045-0.022-0.091-0.033-0.137-0.033c-0.033,0-0.065,0.006-0.094,0.017
		c-0.028,0.011-0.054,0.028-0.076,0.051c-0.023,0.023-0.047,0.048-0.068,0.076c-0.023,0.029-0.043,0.066-0.061,0.111
		c-0.016,0.047-0.034,0.094-0.051,0.146c-0.017,0.051-0.034,0.103-0.051,0.154c-0.017,0.051-0.089,0.151-0.214,0.298l-0.256,0.309
		l-0.496,0.939l-0.256,0.223c-0.08,0.068-0.143,0.216-0.188,0.443c-0.047,0.229-0.354,0.775-0.924,1.641l0.24,0.137l0.119,0.291
		l0.581,0.171c0.33-0.228,0.684-0.382,1.06-0.462l0.103-0.205c0.125,0.046,0.216,0.068,0.274,0.068c0.114,0,0.222-0.068,0.325-0.205
		l0.41-0.068l0.256-0.427h0.239l0.171-0.376c0.308,0,0.598-0.143,0.871-0.428V36.496z"/>
</g>
</svg>
