<?xml version="1.0" encoding="utf-8"?>
<!-- Generator: Adobe Illustrator 17.0.0, SVG Export Plug-In . SVG Version: 6.00 Build 0)  -->
<!DOCTYPE svg PUBLIC "-//W3C//DTD SVG 1.1//EN" "http://www.w3.org/Graphics/SVG/1.1/DTD/svg11.dtd">
<svg version="1.1" id="图层_1" xmlns="http://www.w3.org/2000/svg" xmlns:xlink="http://www.w3.org/1999/xlink" x="0px" y="0px"
	 width="49.596px" height="24.422px" viewBox="-12.638 12.638 49.596 24.422" enable-background="new -12.638 12.638 49.596 24.422"
	 xml:space="preserve">
<g>
	<path d="M5.529,33.248h0.325c0.273,0,0.41,0.068,0.41,0.205c0,0.239-0.222,0.358-0.667,0.358c-0.023,0-0.097,0.046-0.222,0.137
		C5.25,34.04,5.102,34.096,4.932,34.12l-1.248,0.17H2.88l-0.342,0.223c-0.125,0.092-0.262,0.143-0.41,0.154l-0.581,0.051
		l-0.291,0.273l-1.641,0.068l-0.94,0.461c-0.49,0.035-0.803,0.16-0.94,0.377c-0.296,0-0.604-0.058-0.923-0.172l-0.735,0.257
		l-0.837,0.034l-0.769,0.273h-1.846l-1.162-0.308l-0.735,0.068l-0.273-0.257l-0.667-0.068l-1.06-1.076
		c-0.456-0.489-0.769-1.19-0.94-2.102c-0.068-0.354-0.211-0.787-0.427-1.299l0.291-1.197l-0.137-1.213l0.239-0.171l0.034-1.692
		l0.188-0.495c0.057-0.159,0.12-0.541,0.188-1.146l0.256-0.17l-0.222-0.394v-1.999c0.273-0.456,0.404-0.78,0.393-0.975l-0.034-1.196
		l0.566-0.681l-0.53-0.358l0.205-0.633l0.393-0.205l-0.205-0.564l0.444-0.17l0.103-0.325l0.256-0.068l0.376,0.068l0.427,0.991
		c-0.376,0.297-0.564,0.529-0.564,0.701c0,0.022-0.012,0.045-0.034,0.068c0,0.045,0.063,0.091,0.188,0.137
		c0.125,0.045,0.199,0.102,0.222,0.17l-0.376,1.129v1.299l-0.359,1.145l-0.103,1.128l-0.547,2.444l0.171,0.238l-0.137,0.325
		c-0.046,0.114-0.105,0.391-0.179,0.829c-0.075,0.438-0.111,0.687-0.111,0.743l0.103,1.042l-0.137,0.394l0.291,1.572l-0.034,0.137
		l0.547,1.265v0.393l1.76,1.111l1.367,0.137v0.103l1.282-0.068l1.333-0.239h0.991v0.137l0.376-0.342l1.863-0.034l0.444-0.29
		l1.299-0.068l0.598-0.172l2.205-0.137l0.94-0.29c0.182,0.046,0.404,0.068,0.667,0.068c0.262,0,0.393-0.079,0.393-0.239v-0.068
		C5.256,33.419,5.415,33.363,5.529,33.248z"/>
	<path d="M19.953,35.983l-0.496,0.239l-0.103,0.308c-0.194,0.045-0.371,0.108-0.53,0.188l-0.171-0.12l-0.256,0.12l-0.547-0.667
		v-0.769l-0.256-0.223l0.068-1.076l-0.205-2.239l0.137-0.735l-0.239-0.393l0.308-0.171l-0.205-0.307l0.068-0.324l0.171-0.137
		l-0.034-0.428h0.188v-0.701l0.068-0.342c-0.091-0.022-0.2-0.13-0.325-0.324l-0.547,0.256c-0.148,0.285-0.302,0.474-0.461,0.564
		l-0.034,0.376l-0.393,0.171l-0.068,0.496l-0.239,0.17v0.257c-0.228,0.171-0.393,0.376-0.496,0.615l-0.239,0.153l-0.53,0.94
		l-0.837,0.837l-0.273,0.462l-0.735,0.769l-0.188,0.41l-1.008,0.701l-1.128,1.333l-0.376,0.103c-0.114,0.022-0.291,0.143-0.53,0.359
		H9.409c-0.194,0-0.348-0.188-0.461-0.564c-0.877-0.342-1.339-0.831-1.384-1.47l0.273-0.171c-0.16-0.444-0.251-0.899-0.273-1.367
		l-0.188-0.137l0.12-0.188c0.045-0.068,0.08-0.186,0.103-0.351c0.022-0.165,0.057-0.396,0.103-0.692l0.239-1.299
		c-0.023-0.045-0.034-0.125-0.034-0.239c0-0.125,0.034-0.257,0.103-0.394c-0.046-0.17-0.068-0.296-0.068-0.375
		c0-0.092,0.022-0.211,0.068-0.359l0.137-0.034c0.193-0.262,0.291-0.484,0.291-0.667c0-0.113-0.037-0.205-0.111-0.273
		c-0.074-0.068-0.111-0.113-0.111-0.137c0-0.079,0.063-0.137,0.188-0.17c-0.171-0.035-0.256-0.108-0.256-0.223
		c0-0.113,0.12-0.171,0.359-0.171v-0.068c0-0.25,0.071-0.481,0.214-0.692c0.142-0.21,0.219-0.355,0.23-0.436L8.712,26.31
		l0.461-0.734v-0.172c0-0.489,0.159-0.911,0.479-1.264l-0.034-0.633l0.154-0.103c-0.08-0.103-0.12-0.216-0.12-0.342
		c0-0.068,0.074-0.103,0.222-0.103v-0.562c0.114-0.033,0.171-0.091,0.171-0.17c0-0.08-0.012-0.143-0.034-0.188
		c0.068-0.103,0.228-0.29,0.479-0.563c0.25-0.273,0.416-0.502,0.496-0.684h0.103c0.262,0,0.393-0.063,0.393-0.188
		c0-0.045-0.034-0.103-0.103-0.171c0.467,0,0.712-0.091,0.735-0.273l0.632-0.324l1.812,0.153v0.137l1.47,0.308h0.137
		c0.216,0,0.325,0.097,0.325,0.291l0.171-0.068c0.057,0.205,0.188,0.307,0.393,0.307l0.171-0.033l0.308,0.307l0.735,0.188v0.308
		c0.33-0.216,0.752-0.404,1.265-0.564v0.564h-0.171l0.342,0.171l-0.068,0.068l0.273,0.889l-0.308,0.342l-0.137,0.581
		c-0.046,0.194-0.154,0.434-0.325,0.718l0.222,0.444c-0.023,0.034-0.088,0.126-0.197,0.273c-0.108,0.148-0.162,0.41-0.162,0.786
		c0.068,0.034,0.103,0.092,0.103,0.171l-0.068,0.291l0.034,0.238l-0.103,0.377l0.068,0.324l-0.205,0.239l0.068,0.769l-0.103,0.104
		l0.103,0.153l-0.103,0.103c0.022,0.023,0.034,0.068,0.034,0.137c0,0.103-0.034,0.205-0.103,0.308l0.103,0.222l-0.171,0.309
		c-0.091,0.057-0.137,0.222-0.137,0.495l0.137,0.444l-0.325,0.428c0.114,0.238,0.222,0.393,0.325,0.461
		c-0.171,0.239-0.313,0.689-0.427,1.35l0.291,0.068l-0.034,0.188c0.022,0.034,0.034,0.114,0.034,0.239
		c0,0.183-0.085,0.416-0.256,0.701h0.222l0.103,0.529l0.701,0.068l0.239,0.444c-0.068,0.046-0.103,0.085-0.103,0.12
		c0,0.091,0.114,0.205,0.342,0.342h-0.034c-0.046,0-0.068,0.011-0.068,0.033C19.663,35.715,19.759,35.825,19.953,35.983z
		 M18.16,23.405l-0.205-0.632l-0.564-0.172l-0.974-0.871c-0.148-0.091-0.268-0.137-0.359-0.137c-0.057,0-0.148,0.023-0.273,0.068
		l-0.171-0.171h-0.564l-0.171-0.222l-0.393,0.153l-0.171-0.153l-0.291,0.085l-0.547-0.085c-0.262,0-0.672,0.131-1.23,0.393
		l0.068,0.137l-0.308,0.103l-0.068,0.137l-0.393,0.052v0.205c-0.228,0.137-0.496,0.507-0.803,1.11
		c-0.194,0.707-0.405,1.305-0.632,1.794l0.273,0.137L9.94,25.73l0.137,0.273c-0.205,0.308-0.308,0.667-0.308,1.077v0.188
		l-0.256,0.376v0.599c-0.183,0.205-0.285,0.416-0.308,0.632l-0.137,0.137v0.632l-0.12,0.172c0,0.228-0.046,0.541-0.137,0.939
		l0.188,0.428C8.85,31.24,8.685,31.382,8.502,31.61l0.137,0.273l-0.205,0.273l0.273,0.7l-0.308,0.428l0.034,0.838L8.33,34.515
		l0.171,0.103l0.068,0.239c0.193,0.08,0.359,0.211,0.496,0.393l0.803-0.188c0.148-0.342,0.404-0.523,0.769-0.547l-0.068-0.256
		c0.353-0.092,0.539-0.14,0.555-0.146c0.018-0.006,0.043-0.071,0.077-0.196c0.034-0.126,0.137-0.245,0.308-0.359h0.068
		c0.068,0,0.103-0.045,0.103-0.137l0.632-0.734h-0.137l0.376-0.342c0.125-0.126,0.313-0.233,0.564-0.325l0.256-0.667
		c0.433-0.182,0.678-0.427,0.735-0.734h0.205l0.342-0.444l-0.068-0.29l0.325-0.068c-0.046-0.08-0.068-0.137-0.068-0.172
		c0-0.033,0.08-0.162,0.239-0.384c0.159-0.223,0.285-0.407,0.376-0.556l0.154,0.068c0.034-0.273,0.159-0.484,0.376-0.633
		c0.045-0.182,0.137-0.327,0.273-0.436c0.137-0.107,0.233-0.162,0.291-0.162h0.239l0.034-0.428c0.045-0.045,0.068-0.091,0.068-0.137
		c0-0.068-0.034-0.137-0.103-0.205c0.205-0.342,0.37-0.552,0.496-0.632l0.068-0.376l0.239-0.188l-0.068-0.309
		c0.137-0.216,0.222-0.427,0.256-0.632l0.308-0.308L18.16,23.405z"/>
	<path d="M37.061,31.009l-0.239,0.309l0.068,0.837l-0.735,1.025v0.41l-0.461,0.53l0.188,0.307c-0.228,0.217-0.473,0.582-0.735,1.094
		l-0.701,0.428c-0.114,0.183-0.265,0.291-0.453,0.324c-0.188,0.035-0.367,0.074-0.538,0.12l-0.068,0.205l-0.103-0.137l-0.308,0.137
		l-0.222-0.137c-0.137,0-0.296,0.057-0.479,0.171l0.068,0.154l-0.494-0.068l-0.137,0.17l-0.239-0.17l-0.632,0.342l-0.325-0.342
		l-0.701,0.068l-0.581-0.172c-0.422-0.113-0.718-0.29-0.889-0.529l-0.41-0.137l-0.222-0.666c-0.023-0.16-0.183-0.279-0.479-0.359
		l-0.325,0.137l-0.479-0.205l-0.53-1.196l0.103-0.273l-0.205-0.394v-0.648l-0.137-0.291l0.137-0.564l-0.256-0.307l0.12-0.394v-1.11
		l0.137-0.359l0.068-2.238l0.137-0.872l-0.137-0.137l0.239-0.804l-0.103-0.495v-0.479l0.171-0.257
		c-0.046-0.66-0.103-1.03-0.171-1.11l0.326-1.129l-0.222-1.196l0.222-0.137l-0.154-0.41v-0.632l-0.068-1.061l0.103-0.307
		l-0.137-0.633l0.137-0.068c-0.114-0.057-0.171-0.125-0.171-0.205c0-0.034,0.028-0.1,0.085-0.196
		c0.057-0.097,0.085-0.197,0.085-0.299v-0.102l-0.137-0.325c0.045-0.182,0.068-0.33,0.068-0.444c0-0.25-0.091-0.507-0.273-0.769
		c0-0.171,0.068-0.256,0.205-0.256l-0.205-0.513l0.137-0.427l-0.273-0.701l0.376-0.034l-0.034-0.308l0.256-0.137
		c0.091,0.103,0.171,0.308,0.239,0.615l0.342,0.291l-0.239,0.205l0.461,0.564l-0.222,0.308l-0.239,0.068
		c0.182,0.194,0.273,0.302,0.273,0.325c0,0.08-0.046,0.137-0.137,0.171l0.171,0.239l-0.171,0.154l0.325,0.239
		c-0.103,0.091-0.154,0.205-0.154,0.342l0.325,0.701l-0.137,0.393l0.137,0.103l-0.171,0.068c0.114,0.16,0.171,0.279,0.171,0.359
		c0,0.102-0.097,0.228-0.291,0.375l0.359,0.068c-0.057,0.285-0.097,0.53-0.12,0.735s-0.114,0.438-0.273,0.7
		c0.171,0.068,0.256,0.28,0.256,0.633l-0.103,0.428l0.103,0.307l-0.325,1.436l0.325,0.462l-0.325,0.581l0.103,0.529l-0.103,0.359
		l0.222,0.308l-0.325,0.325l0.103,0.238l-0.034,0.309l0.034,0.188l-0.103,0.308l0.171,0.308l-0.171,0.256l0.171,0.342l-0.171,0.137
		c0.068,0.183,0.103,0.325,0.103,0.428c0,0.148-0.08,0.291-0.239,0.428l0.205,0.17l-0.068,0.53v1.384
		c0.193,0.194,0.302,0.291,0.325,0.291c0.159,0,0.239-0.177,0.239-0.529v-0.137c0.103-0.08,0.222-0.217,0.359-0.41
		c0.137-0.194,0.205-0.302,0.205-0.325v-0.239l0.171-0.188c0.034-0.456,0.125-0.78,0.273-0.975l-0.034-0.666l0.222-0.035
		l0.034-0.205l0.103,0.068l0.103-0.495l0.239-0.479v-0.222l0.222-0.41l-0.051-0.325l0.324-0.447l0.24-0.119v-0.24
		c0.182-0.102,0.291-0.29,0.325-0.563l0.375-0.445l0.171,0.068v-0.17l0.188-0.153c0.012-0.206,0.159-0.497,0.445-0.873
		c-0.092-0.056-0.137-0.113-0.137-0.171c0-0.068,0.057-0.113,0.171-0.137l0.068-0.17c0.114-0.023,0.325-0.143,0.632-0.359
		l0.188-0.53h0.206l-0.069-0.171c0.217-0.159,0.541-0.239,0.974-0.239l-0.273-0.068l0.342-0.189h0.136l-0.136-0.137l0.205-0.068
		l-0.069-0.101h0.359l-0.034,0.102l0.872,0.137l0.188,0.342c0.057,0.104,0.114,0.41,0.171,0.924l0.308,0.033l0.068,0.496
		l0.307,0.272v0.428l0.12,0.17l-0.034,0.309l0.41,0.222l0.068,0.667v0.137c0,0.238,0.142,0.587,0.427,1.042
		c-0.08,0.229-0.166,0.37-0.256,0.427c0.114,0.137,0.222,0.205,0.325,0.205c0.091,0,0.171-0.022,0.239-0.068
		c0,0.273-0.103,0.462-0.308,0.564l0.205,1.436c0.069,0.032,0.103,0.09,0.103,0.169l-0.068,0.308l-0.034,1.863l0.102,0.307
		l-0.103,0.564L37.061,31.009z M36.257,28.447l-0.103-0.77v-0.598l-0.273-1.813l-0.325-1.298l-0.479-1.195l-0.82-1.351
		c-0.046-0.125-0.136-0.257-0.273-0.393l-0.53,0.137l-0.239-0.069l-0.239,0.325l-0.461,0.103v0.444c0,0.046-0.088,0.083-0.265,0.111
		c-0.177,0.028-0.311,0.202-0.401,0.521c-0.285,0.251-0.47,0.456-0.556,0.615c-0.085,0.16-0.213,0.331-0.384,0.514h-0.171
		l-0.222,0.803l-0.273,0.41l-0.461,1.128c0,0.354-0.068,0.644-0.205,0.872c-0.137,0.228-0.291,0.495-0.461,0.803l0.034,0.564
		l-0.479,0.7l-0.291,1.162l-0.342,0.273c0.022,0.023,0.034,0.046,0.034,0.068c0,0.046-0.012,0.08-0.034,0.103
		c0.045,0.114,0.068,0.302,0.068,0.564c0,0.33-0.057,0.609-0.171,0.837L27.68,32.12l0.154,0.564l-0.291,0.102l0.034,0.359
		l-0.103,0.273c-0.205,0.137-0.308,0.268-0.308,0.393c0,0.114,0.068,0.172,0.205,0.172c-0.091,0.091-0.137,0.17-0.137,0.238
		c0,0.058,0.045,0.126,0.137,0.205l0.735-0.307l0.496,0.033c0,0.068,0.022,0.104,0.068,0.104h0.034c0.273,0,0.421,0.097,0.444,0.29
		l0.068-0.188l0.051,0.291c0.25,0.046,0.421,0.103,0.513,0.171v0.462c0.159,0.068,0.347,0.216,0.564,0.443h1.197l0.974-0.237
		l0.068-0.205l0.205,0.137l0.291-0.223c0.091-0.068,0.347-0.159,0.769-0.273l-0.068-0.206h0.307v-0.171h0.103
		c0.159,0,0.279-0.14,0.359-0.419c0.08-0.278,0.137-0.436,0.171-0.47l0.974-1.077V32.12l0.393-0.802v-0.975l0.102-1.025
		l-0.034-0.479L36.257,28.447z"/>
</g>
</svg>
